solid Water Tower Parts
facet normal 0.0 0.0 -1.0
  outer loop
    vertex 368.028398487937 1234.3597108128224 0.0
    vertex 345.745136 1229.3597108128224 0.0
    vertex 345.745136 1234.3597108128224 0.0
  endloop
endfacet
facet normal 0.0 0.0 -1.0
  outer loop
    vertex 345.745136 1229.3597108128224 0.0
    vertex 368.028398487937 1234.3597108128224 0.0
    vertex 363.061660975874 1229.3597108128224 0.0
  endloop
endfacet
facet normal 0.0 0.0 -1.0
  outer loop
    vertex 363.061660975874 1229.3597108128224 0.0
    vertex 368.028398487937 1234.3597108128224 0.0
    vertex 364.6414407654292 1217.3600919791081 0.0
  endloop
endfacet
facet normal 0.0 0.0 -1.0
  outer loop
    vertex 364.6414407654292 1217.3600919791081 0.0
    vertex 368.028398487937 1234.3597108128224 0.0
    vertex 370.0747735383052 1218.8159491078097 0.0
  endloop
endfacet
facet normal 0.0 0.0 -1.0
  outer loop
    vertex 364.6414407654292 1217.3600919791081 0.0
    vertex 370.0747735383052 1218.8159491078097 0.0
    vertex 373.13297667832273 1196.8597108128224 0.0
  endloop
endfacet
facet normal 0.0 0.0 -1.0
  outer loop
    vertex 373.13297667832273 1196.8597108128224 0.0
    vertex 370.0747735383052 1218.8159491078097 0.0
    vertex 378.00436957461017 1199.6722108128224 0.0
  endloop
endfacet
facet normal 0.0 0.0 -1.0
  outer loop
    vertex 373.13297667832273 1196.8597108128224 0.0
    vertex 378.00436957461017 1199.6722108128224 0.0
    vertex 386.64105959914343 1179.2556344119657 0.0
  endloop
endfacet
facet normal 0.0 0.0 -1.0
  outer loop
    vertex 386.64105959914343 1179.2556344119657 0.0
    vertex 378.00436957461017 1199.6722108128224 0.0
    vertex 390.6185352433178 1183.2331100561403 0.0
  endloop
endfacet
facet normal 0.0 0.0 -1.0
  outer loop
    vertex 386.64105959914343 1179.2556344119657 0.0
    vertex 390.6185352433178 1183.2331100561403 0.0
    vertex 404.24513599999995 1165.747551491145 0.0
  endloop
endfacet
facet normal 0.0 0.0 -1.0
  outer loop
    vertex 404.24513599999995 1165.747551491145 0.0
    vertex 390.6185352433178 1183.2331100561403 0.0
    vertex 407.057636 1170.6189443874325 0.0
  endloop
endfacet
facet normal 0.0 0.0 -1.0
  outer loop
    vertex 404.24513599999995 1165.747551491145 0.0
    vertex 407.057636 1170.6189443874325 0.0
    vertex 424.7455171662857 1157.2560155782514 0.0
  endloop
endfacet
facet normal 0.0 0.0 -1.0
  outer loop
    vertex 424.7455171662857 1157.2560155782514 0.0
    vertex 407.057636 1170.6189443874325 0.0
    vertex 426.20137429498743 1162.6893483511276 0.0
  endloop
endfacet
facet normal 0.0 0.0 -1.0
  outer loop
    vertex 424.7455171662857 1157.2560155782514 0.0
    vertex 426.20137429498743 1162.6893483511276 0.0
    vertex 446.745136 1154.3597108128224 0.0
  endloop
endfacet
facet normal 0.0 0.0 -1.0
  outer loop
    vertex 446.745136 1154.3597108128224 0.0
    vertex 426.20137429498743 1162.6893483511276 0.0
    vertex 446.745136 1159.9847108128224 0.0
  endloop
endfacet
facet normal 0.0 0.0 -1.0
  outer loop
    vertex 446.745136 1154.3597108128224 0.0
    vertex 446.745136 1159.9847108128224 0.0
    vertex 467.2888977050126 1162.6893483511274 0.0
  endloop
endfacet
facet normal 0.0 0.0 -1.0
  outer loop
    vertex 446.745136 1154.3597108128224 0.0
    vertex 467.2888977050126 1162.6893483511274 0.0
    vertex 468.74475483371424 1157.2560155782514 0.0
  endloop
endfacet
facet normal 0.0 0.0 -1.0
  outer loop
    vertex 468.74475483371424 1157.2560155782514 0.0
    vertex 467.2888977050126 1162.6893483511274 0.0
    vertex 486.432636 1170.6189443874325 0.0
  endloop
endfacet
facet normal 0.0 0.0 -1.0
  outer loop
    vertex 468.74475483371424 1157.2560155782514 0.0
    vertex 486.432636 1170.6189443874325 0.0
    vertex 489.245136 1165.747551491145 0.0
  endloop
endfacet
facet normal 0.0 0.0 -1.0
  outer loop
    vertex 489.245136 1165.747551491145 0.0
    vertex 486.432636 1170.6189443874325 0.0
    vertex 502.8717367566822 1183.23311005614 0.0
  endloop
endfacet
facet normal 0.0 0.0 -1.0
  outer loop
    vertex 489.245136 1165.747551491145 0.0
    vertex 502.8717367566822 1183.23311005614 0.0
    vertex 506.84921240085646 1179.2556344119657 0.0
  endloop
endfacet
facet normal 0.0 0.0 -1.0
  outer loop
    vertex 506.84921240085646 1179.2556344119657 0.0
    vertex 502.8717367566822 1183.23311005614 0.0
    vertex 515.4859024253899 1199.6722108128224 0.0
  endloop
endfacet
facet normal 0.0 0.0 -1.0
  outer loop
    vertex 506.84921240085646 1179.2556344119657 0.0
    vertex 515.4859024253899 1199.6722108128224 0.0
    vertex 520.3572953216773 1196.8597108128222 0.0
  endloop
endfacet
facet normal 0.0 0.0 -1.0
  outer loop
    vertex 520.3572953216773 1196.8597108128222 0.0
    vertex 515.4859024253899 1199.6722108128224 0.0
    vertex 523.4154984616948 1218.8159491078097 0.0
  endloop
endfacet
facet normal 0.0 0.0 -1.0
  outer loop
    vertex 520.3572953216773 1196.8597108128222 0.0
    vertex 523.4154984616948 1218.8159491078097 0.0
    vertex 528.8488312345708 1217.3600919791081 0.0
  endloop
endfacet
facet normal 0.0 0.0 -1.0
  outer loop
    vertex 528.8488312345708 1217.3600919791081 0.0
    vertex 523.4154984616948 1218.8159491078097 0.0
    vertex 525.461873512063 1234.3597108128224 0.0
  endloop
endfacet
facet normal 0.0 0.0 -1.0
  outer loop
    vertex 528.8488312345708 1217.3600919791081 0.0
    vertex 525.461873512063 1234.3597108128224 0.0
    vertex 530.428611024126 1229.3597108128224 0.0
  endloop
endfacet
facet normal 0.0 0.0 -1.0
  outer loop
    vertex 530.428611024126 1229.3597108128224 0.0
    vertex 525.461873512063 1234.3597108128224 0.0
    vertex 546.745136 1234.3597108128224 0.0
  endloop
endfacet
facet normal 0.0 0.0 -1.0
  outer loop
    vertex 530.428611024126 1229.3597108128224 0.0
    vertex 546.745136 1234.3597108128224 0.0
    vertex 546.745136 1229.3597108128224 0.0
  endloop
endfacet
facet normal -0.0 -0.0 1.0
  outer loop
    vertex 363.061660975874 1229.3597108128224 15.0
    vertex 345.745136 1234.3597108128224 15.0
    vertex 345.745136 1229.3597108128224 15.0
  endloop
endfacet
facet normal -0.0 -0.0 1.0
  outer loop
    vertex 345.745136 1234.3597108128224 15.0
    vertex 363.061660975874 1229.3597108128224 15.0
    vertex 368.028398487937 1234.3597108128224 15.0
  endloop
endfacet
facet normal -0.0 -0.0 1.0
  outer loop
    vertex 368.028398487937 1234.3597108128224 15.0
    vertex 363.061660975874 1229.3597108128224 15.0
    vertex 364.6414407654292 1217.3600919791081 15.0
  endloop
endfacet
facet normal -0.0 -0.0 1.0
  outer loop
    vertex 368.028398487937 1234.3597108128224 15.0
    vertex 364.6414407654292 1217.3600919791081 15.0
    vertex 370.0747735383052 1218.8159491078097 15.0
  endloop
endfacet
facet normal -0.0 -0.0 1.0
  outer loop
    vertex 370.0747735383052 1218.8159491078097 15.0
    vertex 364.6414407654292 1217.3600919791081 15.0
    vertex 373.13297667832273 1196.8597108128224 15.0
  endloop
endfacet
facet normal -0.0 -0.0 1.0
  outer loop
    vertex 370.0747735383052 1218.8159491078097 15.0
    vertex 373.13297667832273 1196.8597108128224 15.0
    vertex 378.00436957461017 1199.6722108128224 15.0
  endloop
endfacet
facet normal -0.0 -0.0 1.0
  outer loop
    vertex 378.00436957461017 1199.6722108128224 15.0
    vertex 373.13297667832273 1196.8597108128224 15.0
    vertex 386.64105959914343 1179.2556344119657 15.0
  endloop
endfacet
facet normal -0.0 -0.0 1.0
  outer loop
    vertex 378.00436957461017 1199.6722108128224 15.0
    vertex 386.64105959914343 1179.2556344119657 15.0
    vertex 390.6185352433178 1183.2331100561403 15.0
  endloop
endfacet
facet normal -0.0 -0.0 1.0
  outer loop
    vertex 390.6185352433178 1183.2331100561403 15.0
    vertex 386.64105959914343 1179.2556344119657 15.0
    vertex 404.24513599999995 1165.747551491145 15.0
  endloop
endfacet
facet normal -0.0 -0.0 1.0
  outer loop
    vertex 390.6185352433178 1183.2331100561403 15.0
    vertex 404.24513599999995 1165.747551491145 15.0
    vertex 407.057636 1170.6189443874325 15.0
  endloop
endfacet
facet normal -0.0 -0.0 1.0
  outer loop
    vertex 407.057636 1170.6189443874325 15.0
    vertex 404.24513599999995 1165.747551491145 15.0
    vertex 424.7455171662857 1157.2560155782514 15.0
  endloop
endfacet
facet normal -0.0 -0.0 1.0
  outer loop
    vertex 407.057636 1170.6189443874325 15.0
    vertex 424.7455171662857 1157.2560155782514 15.0
    vertex 426.20137429498743 1162.6893483511276 15.0
  endloop
endfacet
facet normal -0.0 -0.0 1.0
  outer loop
    vertex 426.20137429498743 1162.6893483511276 15.0
    vertex 424.7455171662857 1157.2560155782514 15.0
    vertex 446.745136 1154.3597108128224 15.0
  endloop
endfacet
facet normal -0.0 -0.0 1.0
  outer loop
    vertex 426.20137429498743 1162.6893483511276 15.0
    vertex 446.745136 1154.3597108128224 15.0
    vertex 446.745136 1159.9847108128224 15.0
  endloop
endfacet
facet normal -0.0 -0.0 1.0
  outer loop
    vertex 446.745136 1159.9847108128224 15.0
    vertex 446.745136 1154.3597108128224 15.0
    vertex 468.74475483371424 1157.2560155782514 15.0
  endloop
endfacet
facet normal -0.0 -0.0 1.0
  outer loop
    vertex 446.745136 1159.9847108128224 15.0
    vertex 468.74475483371424 1157.2560155782514 15.0
    vertex 467.2888977050126 1162.6893483511274 15.0
  endloop
endfacet
facet normal -0.0 -0.0 1.0
  outer loop
    vertex 467.2888977050126 1162.6893483511274 15.0
    vertex 468.74475483371424 1157.2560155782514 15.0
    vertex 486.432636 1170.6189443874325 15.0
  endloop
endfacet
facet normal -0.0 -0.0 1.0
  outer loop
    vertex 486.432636 1170.6189443874325 15.0
    vertex 468.74475483371424 1157.2560155782514 15.0
    vertex 489.245136 1165.747551491145 15.0
  endloop
endfacet
facet normal -0.0 -0.0 1.0
  outer loop
    vertex 486.432636 1170.6189443874325 15.0
    vertex 489.245136 1165.747551491145 15.0
    vertex 502.8717367566822 1183.23311005614 15.0
  endloop
endfacet
facet normal -0.0 -0.0 1.0
  outer loop
    vertex 502.8717367566822 1183.23311005614 15.0
    vertex 489.245136 1165.747551491145 15.0
    vertex 506.84921240085646 1179.2556344119657 15.0
  endloop
endfacet
facet normal -0.0 -0.0 1.0
  outer loop
    vertex 502.8717367566822 1183.23311005614 15.0
    vertex 506.84921240085646 1179.2556344119657 15.0
    vertex 515.4859024253899 1199.6722108128224 15.0
  endloop
endfacet
facet normal -0.0 -0.0 1.0
  outer loop
    vertex 515.4859024253899 1199.6722108128224 15.0
    vertex 506.84921240085646 1179.2556344119657 15.0
    vertex 520.3572953216773 1196.8597108128222 15.0
  endloop
endfacet
facet normal -0.0 -0.0 1.0
  outer loop
    vertex 515.4859024253899 1199.6722108128224 15.0
    vertex 520.3572953216773 1196.8597108128222 15.0
    vertex 523.4154984616948 1218.8159491078097 15.0
  endloop
endfacet
facet normal -0.0 -0.0 1.0
  outer loop
    vertex 523.4154984616948 1218.8159491078097 15.0
    vertex 520.3572953216773 1196.8597108128222 15.0
    vertex 528.8488312345708 1217.3600919791081 15.0
  endloop
endfacet
facet normal -0.0 -0.0 1.0
  outer loop
    vertex 523.4154984616948 1218.8159491078097 15.0
    vertex 528.8488312345708 1217.3600919791081 15.0
    vertex 525.461873512063 1234.3597108128224 15.0
  endloop
endfacet
facet normal -0.0 -0.0 1.0
  outer loop
    vertex 525.461873512063 1234.3597108128224 15.0
    vertex 528.8488312345708 1217.3600919791081 15.0
    vertex 530.428611024126 1229.3597108128224 15.0
  endloop
endfacet
facet normal -0.0 -0.0 1.0
  outer loop
    vertex 525.461873512063 1234.3597108128224 15.0
    vertex 530.428611024126 1229.3597108128224 15.0
    vertex 546.745136 1234.3597108128224 15.0
  endloop
endfacet
facet normal -0.0 -0.0 1.0
  outer loop
    vertex 546.745136 1234.3597108128224 15.0
    vertex 530.428611024126 1229.3597108128224 15.0
    vertex 546.745136 1229.3597108128224 15.0
  endloop
endfacet
facet normal -0.0 1.0 0.0
  outer loop
    vertex 525.461873512063 1234.3597108128224 0.0
    vertex 537.0868735120631 1234.3597108128224 4.901923788646573
    vertex 546.745136 1234.3597108128224 0.0
  endloop
endfacet
facet normal -0.0 1.0 0.0
  outer loop
    vertex 537.0868735120631 1234.3597108128224 4.901923788646573
    vertex 525.461873512063 1234.3597108128224 0.0
    vertex 536.4655531685036 1234.3597108128224 5.378679656440226
  endloop
endfacet
facet normal -0.0 1.0 0.0
  outer loop
    vertex 536.4655531685036 1234.3597108128224 5.378679656440226
    vertex 525.461873512063 1234.3597108128224 0.0
    vertex 525.461873512063 1234.3597108128224 15.0
  endloop
endfacet
facet normal -0.0 1.0 0.0
  outer loop
    vertex 546.745136 1234.3597108128224 0.0
    vertex 537.0868735120631 1234.3597108128224 4.901923788646573
    vertex 537.8104163767556 1234.3597108128224 4.60222252113277
  endloop
endfacet
facet normal -0.0 1.0 0.0
  outer loop
    vertex 546.745136 1234.3597108128224 0.0
    vertex 537.8104163767556 1234.3597108128224 4.60222252113277
    vertex 538.5868735120631 1234.3597108128224 4.500000000000026
  endloop
endfacet
facet normal -0.0 1.0 0.0
  outer loop
    vertex 536.4655531685036 1234.3597108128224 5.378679656440226
    vertex 525.461873512063 1234.3597108128224 15.0
    vertex 535.9887973007096 1234.3597108128224 6.000000000000006
  endloop
endfacet
facet normal -0.0 1.0 0.0
  outer loop
    vertex 535.9887973007096 1234.3597108128224 6.000000000000006
    vertex 525.461873512063 1234.3597108128224 15.0
    vertex 535.6890960331958 1234.3597108128224 6.723542864692438
  endloop
endfacet
facet normal -0.0 1.0 0.0
  outer loop
    vertex 535.6890960331958 1234.3597108128224 6.723542864692438
    vertex 525.461873512063 1234.3597108128224 15.0
    vertex 535.586873512063 1234.3597108128224 7.499999999999999
  endloop
endfacet
facet normal -0.0 1.0 0.0
  outer loop
    vertex 535.586873512063 1234.3597108128224 7.499999999999999
    vertex 525.461873512063 1234.3597108128224 15.0
    vertex 535.6890960331957 1234.3597108128224 8.276457135307576
  endloop
endfacet
facet normal -0.0 1.0 0.0
  outer loop
    vertex 535.6890960331957 1234.3597108128224 8.276457135307576
    vertex 525.461873512063 1234.3597108128224 15.0
    vertex 535.9887973007096 1234.3597108128224 8.999999999999977
  endloop
endfacet
facet normal -0.0 1.0 0.0
  outer loop
    vertex 535.9887973007096 1234.3597108128224 8.999999999999977
    vertex 525.461873512063 1234.3597108128224 15.0
    vertex 536.4655531685034 1234.3597108128224 9.621320343559619
  endloop
endfacet
facet normal -0.0 1.0 0.0
  outer loop
    vertex 536.4655531685034 1234.3597108128224 9.621320343559619
    vertex 525.461873512063 1234.3597108128224 15.0
    vertex 537.086873512063 1234.3597108128224 10.098076211353316
  endloop
endfacet
facet normal -0.0 1.0 0.0
  outer loop
    vertex 537.086873512063 1234.3597108128224 10.098076211353316
    vertex 525.461873512063 1234.3597108128224 15.0
    vertex 537.8104163767556 1234.3597108128224 10.397777478867237
  endloop
endfacet
facet normal -0.0 1.0 0.0
  outer loop
    vertex 537.8104163767556 1234.3597108128224 10.397777478867237
    vertex 525.461873512063 1234.3597108128224 15.0
    vertex 538.5868735120631 1234.3597108128224 10.500000000000027
  endloop
endfacet
facet normal -0.0 1.0 0.0
  outer loop
    vertex 546.745136 1234.3597108128224 0.0
    vertex 541.1849497234164 1234.3597108128224 6.000000000000027
    vertex 546.745136 1234.3597108128224 15.0
  endloop
endfacet
facet normal -0.0 1.0 0.0
  outer loop
    vertex 541.1849497234164 1234.3597108128224 6.000000000000027
    vertex 546.745136 1234.3597108128224 0.0
    vertex 540.7081938556227 1234.3597108128224 5.378679656440406
  endloop
endfacet
facet normal -0.0 1.0 0.0
  outer loop
    vertex 540.7081938556227 1234.3597108128224 5.378679656440406
    vertex 546.745136 1234.3597108128224 0.0
    vertex 540.0868735120631 1234.3597108128224 4.901923788646753
  endloop
endfacet
facet normal -0.0 1.0 0.0
  outer loop
    vertex 540.0868735120631 1234.3597108128224 4.901923788646753
    vertex 546.745136 1234.3597108128224 0.0
    vertex 539.3633306473706 1234.3597108128224 4.602222521132804
  endloop
endfacet
facet normal -0.0 1.0 0.0
  outer loop
    vertex 539.3633306473706 1234.3597108128224 4.602222521132804
    vertex 546.745136 1234.3597108128224 0.0
    vertex 538.5868735120631 1234.3597108128224 4.500000000000026
  endloop
endfacet
facet normal -0.0 1.0 0.0
  outer loop
    vertex 546.745136 1234.3597108128224 15.0
    vertex 541.1849497234164 1234.3597108128224 6.000000000000027
    vertex 541.4846509909302 1234.3597108128224 6.723542864692439
  endloop
endfacet
facet normal -0.0 1.0 0.0
  outer loop
    vertex 546.745136 1234.3597108128224 15.0
    vertex 541.4846509909302 1234.3597108128224 6.723542864692439
    vertex 541.586873512063 1234.3597108128224 7.499999999999999
  endloop
endfacet
facet normal -0.0 1.0 0.0
  outer loop
    vertex 546.745136 1234.3597108128224 15.0
    vertex 541.586873512063 1234.3597108128224 7.499999999999999
    vertex 541.4846509909303 1234.3597108128224 8.276457135307597
  endloop
endfacet
facet normal -0.0 1.0 0.0
  outer loop
    vertex 546.745136 1234.3597108128224 15.0
    vertex 541.4846509909303 1234.3597108128224 8.276457135307597
    vertex 541.1849497234165 1234.3597108128224 9.000000000000032
  endloop
endfacet
facet normal -0.0 1.0 0.0
  outer loop
    vertex 546.745136 1234.3597108128224 15.0
    vertex 541.1849497234165 1234.3597108128224 9.000000000000032
    vertex 540.7081938556227 1234.3597108128222 9.621320343559635
  endloop
endfacet
facet normal -0.0 1.0 0.0
  outer loop
    vertex 546.745136 1234.3597108128224 15.0
    vertex 540.7081938556227 1234.3597108128222 9.621320343559635
    vertex 540.0868735120629 1234.3597108128224 10.098076211353309
  endloop
endfacet
facet normal -0.0 1.0 0.0
  outer loop
    vertex 546.745136 1234.3597108128224 15.0
    vertex 540.0868735120629 1234.3597108128224 10.098076211353309
    vertex 539.3633306473705 1234.3597108128224 10.397777478867214
  endloop
endfacet
facet normal -0.0 1.0 0.0
  outer loop
    vertex 546.745136 1234.3597108128224 15.0
    vertex 539.3633306473705 1234.3597108128224 10.397777478867214
    vertex 538.5868735120631 1234.3597108128224 10.500000000000027
  endloop
endfacet
facet normal -0.0 1.0 0.0
  outer loop
    vertex 546.745136 1234.3597108128224 15.0
    vertex 538.5868735120631 1234.3597108128224 10.500000000000027
    vertex 525.461873512063 1234.3597108128224 15.0
  endloop
endfacet
facet normal 1.0 0.0 0.0
  outer loop
    vertex 546.745136 1234.3597108128224 0.0
    vertex 546.745136 1229.3597108128224 15.0
    vertex 546.745136 1229.3597108128224 0.0
  endloop
endfacet
facet normal 1.0 0.0 0.0
  outer loop
    vertex 546.745136 1229.3597108128224 15.0
    vertex 546.745136 1234.3597108128224 0.0
    vertex 546.745136 1234.3597108128224 15.0
  endloop
endfacet
facet normal -0.0 -1.0 -0.0
  outer loop
    vertex 546.745136 1229.3597108128224 0.0
    vertex 540.086873512063 1229.3597108128217 4.901923788646684
    vertex 530.428611024126 1229.3597108128224 0.0
  endloop
endfacet
facet normal -0.0 -1.0 -0.0
  outer loop
    vertex 540.086873512063 1229.3597108128217 4.901923788646684
    vertex 546.745136 1229.3597108128224 0.0
    vertex 540.7081938556227 1229.3597108128217 5.378679656440356
  endloop
endfacet
facet normal -0.0 -1.0 -0.0
  outer loop
    vertex 540.7081938556227 1229.3597108128217 5.378679656440356
    vertex 546.745136 1229.3597108128224 0.0
    vertex 541.1849497234164 1229.3597108128217 5.999999999999999
  endloop
endfacet
facet normal -0.0 -1.0 -0.0
  outer loop
    vertex 541.1849497234164 1229.3597108128217 5.999999999999999
    vertex 546.745136 1229.3597108128224 0.0
    vertex 546.745136 1229.3597108128224 15.0
  endloop
endfacet
facet normal -0.0 -1.0 -0.0
  outer loop
    vertex 530.428611024126 1229.3597108128224 0.0
    vertex 540.086873512063 1229.3597108128217 4.901923788646684
    vertex 539.3633306473706 1229.3597108128217 4.602222521132796
  endloop
endfacet
facet normal -0.0 -1.0 -0.0
  outer loop
    vertex 530.428611024126 1229.3597108128224 0.0
    vertex 539.3633306473706 1229.3597108128217 4.602222521132796
    vertex 538.586873512063 1229.3597108128217 4.5
  endloop
endfacet
facet normal -0.0 -1.0 -0.0
  outer loop
    vertex 541.1849497234164 1229.3597108128217 5.999999999999999
    vertex 546.745136 1229.3597108128224 15.0
    vertex 541.4846509909302 1229.3597108128217 6.723542864692436
  endloop
endfacet
facet normal -0.0 -1.0 -0.0
  outer loop
    vertex 541.4846509909302 1229.3597108128217 6.723542864692436
    vertex 546.745136 1229.3597108128224 15.0
    vertex 541.586873512063 1229.3597108128217 7.5
  endloop
endfacet
facet normal -0.0 -1.0 -0.0
  outer loop
    vertex 541.586873512063 1229.3597108128217 7.5
    vertex 546.745136 1229.3597108128224 15.0
    vertex 541.4846509909302 1229.3597108128217 8.276457135307561
  endloop
endfacet
facet normal -0.0 -1.0 -0.0
  outer loop
    vertex 541.4846509909302 1229.3597108128217 8.276457135307561
    vertex 546.745136 1229.3597108128224 15.0
    vertex 541.1849497234164 1229.3597108128217 8.999999999999998
  endloop
endfacet
facet normal -0.0 -1.0 -0.0
  outer loop
    vertex 541.1849497234164 1229.3597108128217 8.999999999999998
    vertex 546.745136 1229.3597108128224 15.0
    vertex 540.7081938556227 1229.3597108128217 9.621320343559642
  endloop
endfacet
facet normal -0.0 -1.0 -0.0
  outer loop
    vertex 540.7081938556227 1229.3597108128217 9.621320343559642
    vertex 546.745136 1229.3597108128224 15.0
    vertex 540.086873512063 1229.3597108128217 10.098076211353314
  endloop
endfacet
facet normal -0.0 -1.0 -0.0
  outer loop
    vertex 540.086873512063 1229.3597108128217 10.098076211353314
    vertex 546.745136 1229.3597108128224 15.0
    vertex 539.3633306473706 1229.3597108128217 10.397777478867205
  endloop
endfacet
facet normal -0.0 -1.0 -0.0
  outer loop
    vertex 539.3633306473706 1229.3597108128217 10.397777478867205
    vertex 546.745136 1229.3597108128224 15.0
    vertex 538.586873512063 1229.3597108128217 10.5
  endloop
endfacet
facet normal -0.0 -1.0 -0.0
  outer loop
    vertex 530.428611024126 1229.3597108128224 0.0
    vertex 535.9887973007096 1229.3597108128217 6.000000000000001
    vertex 530.428611024126 1229.3597108128224 15.0
  endloop
endfacet
facet normal -0.0 -1.0 -0.0
  outer loop
    vertex 535.9887973007096 1229.3597108128217 6.000000000000001
    vertex 530.428611024126 1229.3597108128224 0.0
    vertex 536.4655531685034 1229.3597108128217 5.378679656440358
  endloop
endfacet
facet normal -0.0 -1.0 -0.0
  outer loop
    vertex 536.4655531685034 1229.3597108128217 5.378679656440358
    vertex 530.428611024126 1229.3597108128224 0.0
    vertex 537.086873512063 1229.3597108128217 4.901923788646685
  endloop
endfacet
facet normal -0.0 -1.0 -0.0
  outer loop
    vertex 537.086873512063 1229.3597108128217 4.901923788646685
    vertex 530.428611024126 1229.3597108128224 0.0
    vertex 537.8104163767554 1229.3597108128217 4.602222521132796
  endloop
endfacet
facet normal -0.0 -1.0 -0.0
  outer loop
    vertex 537.8104163767554 1229.3597108128217 4.602222521132796
    vertex 530.428611024126 1229.3597108128224 0.0
    vertex 538.586873512063 1229.3597108128217 4.5
  endloop
endfacet
facet normal -0.0 -1.0 -0.0
  outer loop
    vertex 530.428611024126 1229.3597108128224 15.0
    vertex 535.9887973007096 1229.3597108128217 6.000000000000001
    vertex 535.6890960331958 1229.3597108128217 6.723542864692439
  endloop
endfacet
facet normal -0.0 -1.0 -0.0
  outer loop
    vertex 530.428611024126 1229.3597108128224 15.0
    vertex 535.6890960331958 1229.3597108128217 6.723542864692439
    vertex 535.586873512063 1229.3597108128217 7.5
  endloop
endfacet
facet normal -0.0 -1.0 -0.0
  outer loop
    vertex 530.428611024126 1229.3597108128224 15.0
    vertex 535.586873512063 1229.3597108128217 7.5
    vertex 535.6890960331958 1229.3597108128217 8.276457135307563
  endloop
endfacet
facet normal -0.0 -1.0 -0.0
  outer loop
    vertex 530.428611024126 1229.3597108128224 15.0
    vertex 535.6890960331958 1229.3597108128217 8.276457135307563
    vertex 535.9887973007096 1229.3597108128217 9.0
  endloop
endfacet
facet normal -0.0 -1.0 -0.0
  outer loop
    vertex 530.428611024126 1229.3597108128224 15.0
    vertex 535.9887973007096 1229.3597108128217 9.0
    vertex 536.4655531685034 1229.3597108128217 9.621320343559642
  endloop
endfacet
facet normal -0.0 -1.0 -0.0
  outer loop
    vertex 530.428611024126 1229.3597108128224 15.0
    vertex 536.4655531685034 1229.3597108128217 9.621320343559642
    vertex 537.086873512063 1229.3597108128217 10.098076211353316
  endloop
endfacet
facet normal -0.0 -1.0 -0.0
  outer loop
    vertex 530.428611024126 1229.3597108128224 15.0
    vertex 537.086873512063 1229.3597108128217 10.098076211353316
    vertex 537.8104163767554 1229.3597108128217 10.397777478867205
  endloop
endfacet
facet normal -0.0 -1.0 -0.0
  outer loop
    vertex 530.428611024126 1229.3597108128224 15.0
    vertex 537.8104163767554 1229.3597108128217 10.397777478867205
    vertex 538.586873512063 1229.3597108128217 10.5
  endloop
endfacet
facet normal -0.0 -1.0 -0.0
  outer loop
    vertex 530.428611024126 1229.3597108128224 15.0
    vertex 538.586873512063 1229.3597108128217 10.5
    vertex 546.745136 1229.3597108128224 15.0
  endloop
endfacet
facet normal -0.9238795325112859 -0.3826834323650921 -0.0
  outer loop
    vertex 364.6414407654292 1217.3600919791081 15.0
    vertex 373.13297667832273 1196.8597108128224 0.0
    vertex 373.13297667832273 1196.8597108128224 15.0
  endloop
endfacet
facet normal -0.9238795325112859 -0.3826834323650921 -0.0
  outer loop
    vertex 373.13297667832273 1196.8597108128224 0.0
    vertex 364.6414407654292 1217.3600919791081 15.0
    vertex 364.6414407654292 1217.3600919791081 0.0
  endloop
endfacet
facet normal -0.13052619222004772 -0.9914448613738109 -0.0
  outer loop
    vertex 446.745136 1154.3597108128224 15.0
    vertex 424.7455171662857 1157.2560155782514 0.0
    vertex 446.745136 1154.3597108128224 0.0
  endloop
endfacet
facet normal -0.13052619222004772 -0.9914448613738109 -0.0
  outer loop
    vertex 424.7455171662857 1157.2560155782514 0.0
    vertex 446.745136 1154.3597108128224 15.0
    vertex 424.7455171662857 1157.2560155782514 15.0
  endloop
endfacet
facet normal -0.0 -1.0 -0.0
  outer loop
    vertex 363.061660975874 1229.3597108128224 0.0
    vertex 355.903398487937 1229.359710812822 4.901923788646684
    vertex 345.745136 1229.3597108128224 0.0
  endloop
endfacet
facet normal -0.0 -1.0 -0.0
  outer loop
    vertex 355.903398487937 1229.359710812822 4.901923788646684
    vertex 363.061660975874 1229.3597108128224 0.0
    vertex 356.5247188314966 1229.359710812822 5.378679656440356
  endloop
endfacet
facet normal -0.0 -1.0 -0.0
  outer loop
    vertex 356.5247188314966 1229.359710812822 5.378679656440356
    vertex 363.061660975874 1229.3597108128224 0.0
    vertex 357.00147469929027 1229.359710812822 5.999999999999999
  endloop
endfacet
facet normal -0.0 -1.0 -0.0
  outer loop
    vertex 357.00147469929027 1229.359710812822 5.999999999999999
    vertex 363.061660975874 1229.3597108128224 0.0
    vertex 363.061660975874 1229.3597108128224 15.0
  endloop
endfacet
facet normal -0.0 -1.0 -0.0
  outer loop
    vertex 345.745136 1229.3597108128224 0.0
    vertex 355.903398487937 1229.359710812822 4.901923788646684
    vertex 355.1798556232445 1229.359710812822 4.602222521132796
  endloop
endfacet
facet normal -0.0 -1.0 -0.0
  outer loop
    vertex 345.745136 1229.3597108128224 0.0
    vertex 355.1798556232445 1229.359710812822 4.602222521132796
    vertex 354.40339848793695 1229.359710812822 4.5
  endloop
endfacet
facet normal -0.0 -1.0 -0.0
  outer loop
    vertex 357.00147469929027 1229.359710812822 5.999999999999999
    vertex 363.061660975874 1229.3597108128224 15.0
    vertex 357.3011759668042 1229.359710812822 6.723542864692436
  endloop
endfacet
facet normal -0.0 -1.0 -0.0
  outer loop
    vertex 357.3011759668042 1229.359710812822 6.723542864692436
    vertex 363.061660975874 1229.3597108128224 15.0
    vertex 357.40339848793695 1229.359710812822 7.5
  endloop
endfacet
facet normal -0.0 -1.0 -0.0
  outer loop
    vertex 357.40339848793695 1229.359710812822 7.5
    vertex 363.061660975874 1229.3597108128224 15.0
    vertex 357.3011759668042 1229.359710812822 8.276457135307561
  endloop
endfacet
facet normal -0.0 -1.0 -0.0
  outer loop
    vertex 357.3011759668042 1229.359710812822 8.276457135307561
    vertex 363.061660975874 1229.3597108128224 15.0
    vertex 357.00147469929027 1229.359710812822 8.999999999999998
  endloop
endfacet
facet normal -0.0 -1.0 -0.0
  outer loop
    vertex 357.00147469929027 1229.359710812822 8.999999999999998
    vertex 363.061660975874 1229.3597108128224 15.0
    vertex 356.5247188314966 1229.359710812822 9.621320343559642
  endloop
endfacet
facet normal -0.0 -1.0 -0.0
  outer loop
    vertex 356.5247188314966 1229.359710812822 9.621320343559642
    vertex 363.061660975874 1229.3597108128224 15.0
    vertex 355.903398487937 1229.359710812822 10.098076211353314
  endloop
endfacet
facet normal -0.0 -1.0 -0.0
  outer loop
    vertex 355.903398487937 1229.359710812822 10.098076211353314
    vertex 363.061660975874 1229.3597108128224 15.0
    vertex 355.1798556232445 1229.359710812822 10.397777478867205
  endloop
endfacet
facet normal -0.0 -1.0 -0.0
  outer loop
    vertex 355.1798556232445 1229.359710812822 10.397777478867205
    vertex 363.061660975874 1229.3597108128224 15.0
    vertex 354.40339848793695 1229.359710812822 10.5
  endloop
endfacet
facet normal -0.0 -1.0 -0.0
  outer loop
    vertex 345.745136 1229.3597108128224 0.0
    vertex 351.8053222765837 1229.359710812822 6.000000000000001
    vertex 345.745136 1229.3597108128224 15.0
  endloop
endfacet
facet normal -0.0 -1.0 -0.0
  outer loop
    vertex 351.8053222765837 1229.359710812822 6.000000000000001
    vertex 345.745136 1229.3597108128224 0.0
    vertex 352.28207814437735 1229.359710812822 5.378679656440358
  endloop
endfacet
facet normal -0.0 -1.0 -0.0
  outer loop
    vertex 352.28207814437735 1229.359710812822 5.378679656440358
    vertex 345.745136 1229.3597108128224 0.0
    vertex 352.90339848793695 1229.359710812822 4.901923788646685
  endloop
endfacet
facet normal -0.0 -1.0 -0.0
  outer loop
    vertex 352.90339848793695 1229.359710812822 4.901923788646685
    vertex 345.745136 1229.3597108128224 0.0
    vertex 353.62694135262944 1229.359710812822 4.602222521132796
  endloop
endfacet
facet normal -0.0 -1.0 -0.0
  outer loop
    vertex 353.62694135262944 1229.359710812822 4.602222521132796
    vertex 345.745136 1229.3597108128224 0.0
    vertex 354.40339848793695 1229.359710812822 4.5
  endloop
endfacet
facet normal -0.0 -1.0 -0.0
  outer loop
    vertex 345.745136 1229.3597108128224 15.0
    vertex 351.8053222765837 1229.359710812822 6.000000000000001
    vertex 351.5056210090698 1229.359710812822 6.723542864692439
  endloop
endfacet
facet normal -0.0 -1.0 -0.0
  outer loop
    vertex 345.745136 1229.3597108128224 15.0
    vertex 351.5056210090698 1229.359710812822 6.723542864692439
    vertex 351.40339848793695 1229.359710812822 7.5
  endloop
endfacet
facet normal -0.0 -1.0 -0.0
  outer loop
    vertex 345.745136 1229.3597108128224 15.0
    vertex 351.40339848793695 1229.359710812822 7.5
    vertex 351.5056210090698 1229.359710812822 8.276457135307563
  endloop
endfacet
facet normal -0.0 -1.0 -0.0
  outer loop
    vertex 345.745136 1229.3597108128224 15.0
    vertex 351.5056210090698 1229.359710812822 8.276457135307563
    vertex 351.8053222765837 1229.359710812822 9.0
  endloop
endfacet
facet normal -0.0 -1.0 -0.0
  outer loop
    vertex 345.745136 1229.3597108128224 15.0
    vertex 351.8053222765837 1229.359710812822 9.0
    vertex 352.28207814437735 1229.359710812822 9.621320343559642
  endloop
endfacet
facet normal -0.0 -1.0 -0.0
  outer loop
    vertex 345.745136 1229.3597108128224 15.0
    vertex 352.28207814437735 1229.359710812822 9.621320343559642
    vertex 352.90339848793695 1229.359710812822 10.098076211353316
  endloop
endfacet
facet normal -0.0 -1.0 -0.0
  outer loop
    vertex 345.745136 1229.3597108128224 15.0
    vertex 352.90339848793695 1229.359710812822 10.098076211353316
    vertex 353.62694135262944 1229.359710812822 10.397777478867205
  endloop
endfacet
facet normal -0.0 -1.0 -0.0
  outer loop
    vertex 345.745136 1229.3597108128224 15.0
    vertex 353.62694135262944 1229.359710812822 10.397777478867205
    vertex 354.40339848793695 1229.359710812822 10.5
  endloop
endfacet
facet normal -0.0 -1.0 -0.0
  outer loop
    vertex 345.745136 1229.3597108128224 15.0
    vertex 354.40339848793695 1229.359710812822 10.5
    vertex 363.061660975874 1229.3597108128224 15.0
  endloop
endfacet
facet normal 0.6087614290087234 -0.7933533402912331 0.0
  outer loop
    vertex 506.84921240085646 1179.2556344119657 15.0
    vertex 489.245136 1165.747551491145 0.0
    vertex 506.84921240085646 1179.2556344119657 0.0
  endloop
endfacet
facet normal 0.6087614290087234 -0.7933533402912331 0.0
  outer loop
    vertex 489.245136 1165.747551491145 0.0
    vertex 506.84921240085646 1179.2556344119657 15.0
    vertex 489.245136 1165.747551491145 15.0
  endloop
endfacet
facet normal -0.6087614290087224 -0.7933533402912338 -0.0
  outer loop
    vertex 404.24513599999995 1165.747551491145 15.0
    vertex 386.64105959914343 1179.2556344119657 0.0
    vertex 404.24513599999995 1165.747551491145 0.0
  endloop
endfacet
facet normal -0.6087614290087224 -0.7933533402912338 -0.0
  outer loop
    vertex 386.64105959914343 1179.2556344119657 0.0
    vertex 404.24513599999995 1165.747551491145 15.0
    vertex 386.64105959914343 1179.2556344119657 15.0
  endloop
endfacet
facet normal 0.7933533402912331 -0.6087614290087234 0.0
  outer loop
    vertex 520.3572953216773 1196.8597108128222 0.0
    vertex 506.84921240085646 1179.2556344119657 15.0
    vertex 506.84921240085646 1179.2556344119657 0.0
  endloop
endfacet
facet normal 0.7933533402912331 -0.6087614290087234 0.0
  outer loop
    vertex 506.84921240085646 1179.2556344119657 15.0
    vertex 520.3572953216773 1196.8597108128222 0.0
    vertex 520.3572953216773 1196.8597108128222 15.0
  endloop
endfacet
facet normal 0.13052619222004824 -0.9914448613738108 0.0
  outer loop
    vertex 468.74475483371424 1157.2560155782514 15.0
    vertex 446.745136 1154.3597108128224 0.0
    vertex 468.74475483371424 1157.2560155782514 0.0
  endloop
endfacet
facet normal 0.13052619222004824 -0.9914448613738108 0.0
  outer loop
    vertex 446.745136 1154.3597108128224 0.0
    vertex 468.74475483371424 1157.2560155782514 15.0
    vertex 446.745136 1154.3597108128224 15.0
  endloop
endfacet
facet normal -0.38268343236508995 -0.9238795325112867 -0.0
  outer loop
    vertex 424.7455171662857 1157.2560155782514 15.0
    vertex 404.24513599999995 1165.747551491145 0.0
    vertex 424.7455171662857 1157.2560155782514 0.0
  endloop
endfacet
facet normal -0.38268343236508995 -0.9238795325112867 -0.0
  outer loop
    vertex 404.24513599999995 1165.747551491145 0.0
    vertex 424.7455171662857 1157.2560155782514 15.0
    vertex 404.24513599999995 1165.747551491145 15.0
  endloop
endfacet
facet normal -0.7933533402912382 -0.608761429008717 -0.0
  outer loop
    vertex 373.13297667832273 1196.8597108128224 15.0
    vertex 386.64105959914343 1179.2556344119657 0.0
    vertex 386.64105959914343 1179.2556344119657 15.0
  endloop
endfacet
facet normal -0.7933533402912382 -0.608761429008717 -0.0
  outer loop
    vertex 386.64105959914343 1179.2556344119657 0.0
    vertex 373.13297667832273 1196.8597108128224 15.0
    vertex 373.13297667832273 1196.8597108128224 0.0
  endloop
endfacet
facet normal 0.9914448613738108 -0.13052619222004913 0.0
  outer loop
    vertex 530.428611024126 1229.3597108128224 0.0
    vertex 528.8488312345708 1217.3600919791081 15.0
    vertex 528.8488312345708 1217.3600919791081 0.0
  endloop
endfacet
facet normal 0.9914448613738108 -0.13052619222004913 0.0
  outer loop
    vertex 528.8488312345708 1217.3600919791081 15.0
    vertex 530.428611024126 1229.3597108128224 0.0
    vertex 530.428611024126 1229.3597108128224 15.0
  endloop
endfacet
facet normal -0.9914448613738108 -0.13052619222004913 -0.0
  outer loop
    vertex 363.061660975874 1229.3597108128224 15.0
    vertex 364.6414407654292 1217.3600919791081 0.0
    vertex 364.6414407654292 1217.3600919791081 15.0
  endloop
endfacet
facet normal -0.9914448613738108 -0.13052619222004913 -0.0
  outer loop
    vertex 364.6414407654292 1217.3600919791081 0.0
    vertex 363.061660975874 1229.3597108128224 15.0
    vertex 363.061660975874 1229.3597108128224 0.0
  endloop
endfacet
facet normal 0.3826834323650892 -0.923879532511287 0.0
  outer loop
    vertex 489.245136 1165.747551491145 15.0
    vertex 468.74475483371424 1157.2560155782514 0.0
    vertex 489.245136 1165.747551491145 0.0
  endloop
endfacet
facet normal 0.3826834323650892 -0.923879532511287 0.0
  outer loop
    vertex 468.74475483371424 1157.2560155782514 0.0
    vertex 489.245136 1165.747551491145 15.0
    vertex 468.74475483371424 1157.2560155782514 15.0
  endloop
endfacet
facet normal 0.923879532511287 -0.3826834323650892 0.0
  outer loop
    vertex 528.8488312345708 1217.3600919791081 0.0
    vertex 520.3572953216773 1196.8597108128222 15.0
    vertex 520.3572953216773 1196.8597108128222 0.0
  endloop
endfacet
facet normal 0.923879532511287 -0.3826834323650892 0.0
  outer loop
    vertex 520.3572953216773 1196.8597108128222 15.0
    vertex 528.8488312345708 1217.3600919791081 0.0
    vertex 528.8488312345708 1217.3600919791081 15.0
  endloop
endfacet
facet normal -1.0 0.0 0.0
  outer loop
    vertex 345.745136 1234.3597108128224 15.0
    vertex 345.745136 1229.3597108128224 0.0
    vertex 345.745136 1229.3597108128224 15.0
  endloop
endfacet
facet normal -1.0 0.0 0.0
  outer loop
    vertex 345.745136 1229.3597108128224 0.0
    vertex 345.745136 1234.3597108128224 15.0
    vertex 345.745136 1234.3597108128224 0.0
  endloop
endfacet
facet normal -0.0 1.0 0.0
  outer loop
    vertex 345.745136 1234.3597108128224 0.0
    vertex 353.6269413526295 1234.3597108128224 4.602222521132782
    vertex 368.028398487937 1234.3597108128224 0.0
  endloop
endfacet
facet normal -0.0 1.0 0.0
  outer loop
    vertex 353.6269413526295 1234.3597108128224 4.602222521132782
    vertex 345.745136 1234.3597108128224 0.0
    vertex 352.9033984879369 1234.3597108128224 4.901923788646708
  endloop
endfacet
facet normal -0.0 1.0 0.0
  outer loop
    vertex 352.9033984879369 1234.3597108128224 4.901923788646708
    vertex 345.745136 1234.3597108128224 0.0
    vertex 352.28207814437735 1234.3597108128224 5.378679656440361
  endloop
endfacet
facet normal -0.0 1.0 0.0
  outer loop
    vertex 352.28207814437735 1234.3597108128224 5.378679656440361
    vertex 345.745136 1234.3597108128224 0.0
    vertex 351.8053222765837 1234.3597108128224 6.0
  endloop
endfacet
facet normal -0.0 1.0 0.0
  outer loop
    vertex 351.8053222765837 1234.3597108128224 6.0
    vertex 345.745136 1234.3597108128224 0.0
    vertex 345.745136 1234.3597108128224 15.0
  endloop
endfacet
facet normal -0.0 1.0 0.0
  outer loop
    vertex 368.028398487937 1234.3597108128224 0.0
    vertex 353.6269413526295 1234.3597108128224 4.602222521132782
    vertex 354.403398487937 1234.3597108128224 4.499999999999992
  endloop
endfacet
facet normal -0.0 1.0 0.0
  outer loop
    vertex 351.8053222765837 1234.3597108128224 6.0
    vertex 345.745136 1234.3597108128224 15.0
    vertex 351.5056210090698 1234.3597108128224 6.723542864692439
  endloop
endfacet
facet normal -0.0 1.0 0.0
  outer loop
    vertex 351.5056210090698 1234.3597108128224 6.723542864692439
    vertex 345.745136 1234.3597108128224 15.0
    vertex 351.40339848793695 1234.3597108128224 7.5000000000000036
  endloop
endfacet
facet normal -0.0 1.0 0.0
  outer loop
    vertex 351.40339848793695 1234.3597108128224 7.5000000000000036
    vertex 345.745136 1234.3597108128224 15.0
    vertex 351.5056210090697 1234.3597108128224 8.276457135307567
  endloop
endfacet
facet normal -0.0 1.0 0.0
  outer loop
    vertex 351.5056210090697 1234.3597108128224 8.276457135307567
    vertex 345.745136 1234.3597108128224 15.0
    vertex 351.80532227658364 1234.3597108128224 9.000000000000012
  endloop
endfacet
facet normal -0.0 1.0 0.0
  outer loop
    vertex 351.80532227658364 1234.3597108128224 9.000000000000012
    vertex 345.745136 1234.3597108128224 15.0
    vertex 352.2820781443773 1234.3597108128224 9.621320343559612
  endloop
endfacet
facet normal -0.0 1.0 0.0
  outer loop
    vertex 352.2820781443773 1234.3597108128224 9.621320343559612
    vertex 345.745136 1234.3597108128224 15.0
    vertex 352.9033984879369 1234.3597108128224 10.098076211353309
  endloop
endfacet
facet normal -0.0 1.0 0.0
  outer loop
    vertex 352.9033984879369 1234.3597108128224 10.098076211353309
    vertex 345.745136 1234.3597108128224 15.0
    vertex 353.6269413526295 1234.3597108128224 10.397777478867237
  endloop
endfacet
facet normal -0.0 1.0 0.0
  outer loop
    vertex 353.6269413526295 1234.3597108128224 10.397777478867237
    vertex 345.745136 1234.3597108128224 15.0
    vertex 354.403398487937 1234.3597108128224 10.499999999999993
  endloop
endfacet
facet normal -0.0 1.0 0.0
  outer loop
    vertex 368.028398487937 1234.3597108128224 0.0
    vertex 356.5247188314966 1234.3597108128224 5.378679656440347
    vertex 368.028398487937 1234.3597108128224 15.0
  endloop
endfacet
facet normal -0.0 1.0 0.0
  outer loop
    vertex 356.5247188314966 1234.3597108128224 5.378679656440347
    vertex 368.028398487937 1234.3597108128224 0.0
    vertex 355.90339848793707 1234.3597108128224 4.901923788646731
  endloop
endfacet
facet normal -0.0 1.0 0.0
  outer loop
    vertex 355.90339848793707 1234.3597108128224 4.901923788646731
    vertex 368.028398487937 1234.3597108128224 0.0
    vertex 355.17985562324463 1234.3597108128224 4.602222521132827
  endloop
endfacet
facet normal -0.0 1.0 0.0
  outer loop
    vertex 355.17985562324463 1234.3597108128224 4.602222521132827
    vertex 368.028398487937 1234.3597108128224 0.0
    vertex 354.403398487937 1234.3597108128224 4.499999999999992
  endloop
endfacet
facet normal -0.0 1.0 0.0
  outer loop
    vertex 368.028398487937 1234.3597108128224 15.0
    vertex 356.5247188314966 1234.3597108128224 5.378679656440347
    vertex 357.00147469929027 1234.3597108128224 5.999999999999989
  endloop
endfacet
facet normal -0.0 1.0 0.0
  outer loop
    vertex 368.028398487937 1234.3597108128224 15.0
    vertex 357.00147469929027 1234.3597108128224 5.999999999999989
    vertex 357.3011759668042 1234.3597108128224 6.723542864692433
  endloop
endfacet
facet normal -0.0 1.0 0.0
  outer loop
    vertex 368.028398487937 1234.3597108128224 15.0
    vertex 357.3011759668042 1234.3597108128224 6.723542864692433
    vertex 357.4033984879369 1234.3597108128224 7.499999999999997
  endloop
endfacet
facet normal -0.0 1.0 0.0
  outer loop
    vertex 368.028398487937 1234.3597108128224 15.0
    vertex 357.4033984879369 1234.3597108128224 7.499999999999997
    vertex 357.3011759668041 1234.3597108128224 8.27645713530756
  endloop
endfacet
facet normal -0.0 1.0 0.0
  outer loop
    vertex 368.028398487937 1234.3597108128224 15.0
    vertex 357.3011759668041 1234.3597108128224 8.27645713530756
    vertex 357.00147469929027 1234.3597108128224 8.999999999999986
  endloop
endfacet
facet normal -0.0 1.0 0.0
  outer loop
    vertex 368.028398487937 1234.3597108128224 15.0
    vertex 357.00147469929027 1234.3597108128224 8.999999999999986
    vertex 356.52471883149667 1234.3597108128222 9.621320343559566
  endloop
endfacet
facet normal -0.0 1.0 0.0
  outer loop
    vertex 368.028398487937 1234.3597108128224 15.0
    vertex 356.52471883149667 1234.3597108128222 9.621320343559566
    vertex 355.9033984879371 1234.3597108128224 10.098076211353218
  endloop
endfacet
facet normal -0.0 1.0 0.0
  outer loop
    vertex 368.028398487937 1234.3597108128224 15.0
    vertex 355.9033984879371 1234.3597108128224 10.098076211353218
    vertex 355.1798556232447 1234.3597108128224 10.397777478867123
  endloop
endfacet
facet normal -0.0 1.0 0.0
  outer loop
    vertex 368.028398487937 1234.3597108128224 15.0
    vertex 355.1798556232447 1234.3597108128224 10.397777478867123
    vertex 354.403398487937 1234.3597108128224 10.499999999999993
  endloop
endfacet
facet normal -0.0 1.0 0.0
  outer loop
    vertex 368.028398487937 1234.3597108128224 15.0
    vertex 354.403398487937 1234.3597108128224 10.499999999999993
    vertex 345.745136 1234.3597108128224 15.0
  endloop
endfacet
facet normal 0.3826834323650883 0.9238795325112874 0.0
  outer loop
    vertex 407.057636 1170.6189443874325 15.0
    vertex 426.20137429498743 1162.6893483511276 0.0
    vertex 407.057636 1170.6189443874325 0.0
  endloop
endfacet
facet normal 0.3826834323650883 0.9238795325112874 0.0
  outer loop
    vertex 426.20137429498743 1162.6893483511276 0.0
    vertex 407.057636 1170.6189443874325 15.0
    vertex 426.20137429498743 1162.6893483511276 15.0
  endloop
endfacet
facet normal 0.9914448613738106 0.13052619222005077 0.0
  outer loop
    vertex 368.028398487937 1234.3597108128224 0.0
    vertex 370.0747735383052 1218.8159491078097 15.0
    vertex 370.0747735383052 1218.8159491078097 0.0
  endloop
endfacet
facet normal 0.9914448613738106 0.13052619222005077 0.0
  outer loop
    vertex 370.0747735383052 1218.8159491078097 15.0
    vertex 368.028398487937 1234.3597108128224 0.0
    vertex 368.028398487937 1234.3597108128224 15.0
  endloop
endfacet
facet normal -0.9238795325112874 0.3826834323650883 0.0
  outer loop
    vertex 523.4154984616948 1218.8159491078097 15.0
    vertex 515.4859024253899 1199.6722108128224 0.0
    vertex 515.4859024253899 1199.6722108128224 15.0
  endloop
endfacet
facet normal -0.9238795325112874 0.3826834323650883 0.0
  outer loop
    vertex 515.4859024253899 1199.6722108128224 0.0
    vertex 523.4154984616948 1218.8159491078097 15.0
    vertex 523.4154984616948 1218.8159491078097 0.0
  endloop
endfacet
facet normal -0.13052619222004747 0.9914448613738109 0.0
  outer loop
    vertex 446.745136 1159.9847108128224 15.0
    vertex 467.2888977050126 1162.6893483511274 0.0
    vertex 446.745136 1159.9847108128224 0.0
  endloop
endfacet
facet normal -0.13052619222004747 0.9914448613738109 0.0
  outer loop
    vertex 467.2888977050126 1162.6893483511274 0.0
    vertex 446.745136 1159.9847108128224 15.0
    vertex 467.2888977050126 1162.6893483511274 15.0
  endloop
endfacet
facet normal 0.793353340291233 0.6087614290087237 0.0
  outer loop
    vertex 378.00436957461017 1199.6722108128224 0.0
    vertex 390.6185352433178 1183.2331100561403 15.0
    vertex 390.6185352433178 1183.2331100561403 0.0
  endloop
endfacet
facet normal 0.793353340291233 0.6087614290087237 0.0
  outer loop
    vertex 390.6185352433178 1183.2331100561403 15.0
    vertex 378.00436957461017 1199.6722108128224 0.0
    vertex 378.00436957461017 1199.6722108128224 15.0
  endloop
endfacet
facet normal -0.6087614290087161 0.7933533402912387 0.0
  outer loop
    vertex 486.432636 1170.6189443874325 15.0
    vertex 502.8717367566822 1183.23311005614 0.0
    vertex 486.432636 1170.6189443874325 0.0
  endloop
endfacet
facet normal -0.6087614290087161 0.7933533402912387 0.0
  outer loop
    vertex 502.8717367566822 1183.23311005614 0.0
    vertex 486.432636 1170.6189443874325 15.0
    vertex 502.8717367566822 1183.23311005614 15.0
  endloop
endfacet
facet normal 0.9238795325112874 0.3826834323650883 0.0
  outer loop
    vertex 370.0747735383052 1218.8159491078097 0.0
    vertex 378.00436957461017 1199.6722108128224 15.0
    vertex 378.00436957461017 1199.6722108128224 0.0
  endloop
endfacet
facet normal 0.9238795325112874 0.3826834323650883 0.0
  outer loop
    vertex 378.00436957461017 1199.6722108128224 15.0
    vertex 370.0747735383052 1218.8159491078097 0.0
    vertex 370.0747735383052 1218.8159491078097 15.0
  endloop
endfacet
facet normal -0.9914448613738106 0.13052619222005077 0.0
  outer loop
    vertex 525.461873512063 1234.3597108128224 15.0
    vertex 523.4154984616948 1218.8159491078097 0.0
    vertex 523.4154984616948 1218.8159491078097 15.0
  endloop
endfacet
facet normal -0.9914448613738106 0.13052619222005077 0.0
  outer loop
    vertex 523.4154984616948 1218.8159491078097 0.0
    vertex 525.461873512063 1234.3597108128224 15.0
    vertex 525.461873512063 1234.3597108128224 0.0
  endloop
endfacet
facet normal 0.6087614290087214 0.7933533402912345 0.0
  outer loop
    vertex 390.6185352433178 1183.2331100561403 15.0
    vertex 407.057636 1170.6189443874325 0.0
    vertex 390.6185352433178 1183.2331100561403 0.0
  endloop
endfacet
facet normal 0.6087614290087214 0.7933533402912345 0.0
  outer loop
    vertex 407.057636 1170.6189443874325 0.0
    vertex 390.6185352433178 1183.2331100561403 15.0
    vertex 407.057636 1170.6189443874325 15.0
  endloop
endfacet
facet normal -0.7933533402912363 0.6087614290087194 0.0
  outer loop
    vertex 515.4859024253899 1199.6722108128224 15.0
    vertex 502.8717367566822 1183.23311005614 0.0
    vertex 502.8717367566822 1183.23311005614 15.0
  endloop
endfacet
facet normal -0.7933533402912363 0.6087614290087194 0.0
  outer loop
    vertex 502.8717367566822 1183.23311005614 0.0
    vertex 515.4859024253899 1199.6722108128224 15.0
    vertex 515.4859024253899 1199.6722108128224 0.0
  endloop
endfacet
facet normal 0.13052619222005604 0.9914448613738099 0.0
  outer loop
    vertex 426.20137429498743 1162.6893483511276 15.0
    vertex 446.745136 1159.9847108128224 0.0
    vertex 426.20137429498743 1162.6893483511276 0.0
  endloop
endfacet
facet normal 0.13052619222005604 0.9914448613738099 0.0
  outer loop
    vertex 446.745136 1159.9847108128224 0.0
    vertex 426.20137429498743 1162.6893483511276 15.0
    vertex 446.745136 1159.9847108128224 15.0
  endloop
endfacet
facet normal -0.3826834323650957 0.9238795325112844 0.0
  outer loop
    vertex 467.2888977050126 1162.6893483511274 15.0
    vertex 486.432636 1170.6189443874325 0.0
    vertex 467.2888977050126 1162.6893483511274 0.0
  endloop
endfacet
facet normal -0.3826834323650957 0.9238795325112844 0.0
  outer loop
    vertex 486.432636 1170.6189443874325 0.0
    vertex 467.2888977050126 1162.6893483511274 15.0
    vertex 486.432636 1170.6189443874325 15.0
  endloop
endfacet
facet normal -0.6087614290087301 -6.612180380577088e-15 -0.793353340291228
  outer loop
    vertex 540.7081938556227 1234.3597108128222 9.621320343559635
    vertex 540.086873512063 1229.3597108128217 10.098076211353314
    vertex 540.0868735120629 1234.3597108128224 10.098076211353309
  endloop
endfacet
facet normal -0.6087614290087301 -6.612180380577088e-15 -0.793353340291228
  outer loop
    vertex 540.086873512063 1229.3597108128217 10.098076211353314
    vertex 540.7081938556227 1234.3597108128222 9.621320343559635
    vertex 540.7081938556227 1229.3597108128217 9.621320343559642
  endloop
endfacet
facet normal -0.9238795325113001 1.937118528835038e-14 -0.38268343236505814
  outer loop
    vertex 541.1849497234165 1234.3597108128224 9.000000000000032
    vertex 541.4846509909302 1229.3597108128217 8.276457135307561
    vertex 541.1849497234164 1229.3597108128217 8.999999999999998
  endloop
endfacet
facet normal -0.9238795325113001 1.937118528835038e-14 -0.38268343236505814
  outer loop
    vertex 541.4846509909302 1229.3597108128217 8.276457135307561
    vertex 541.1849497234165 1234.3597108128224 9.000000000000032
    vertex 541.4846509909303 1234.3597108128224 8.276457135307597
  endloop
endfacet
facet normal 0.9914448613738039 3.65203866161792e-17 0.13052619222010148
  outer loop
    vertex 535.6890960331958 1234.3597108128224 6.723542864692438
    vertex 535.586873512063 1229.3597108128217 7.5
    vertex 535.6890960331958 1229.3597108128217 6.723542864692439
  endloop
endfacet
facet normal 0.9914448613738039 3.65203866161792e-17 0.13052619222010148
  outer loop
    vertex 535.586873512063 1229.3597108128217 7.5
    vertex 535.6890960331958 1234.3597108128224 6.723542864692438
    vertex 535.586873512063 1234.3597108128224 7.499999999999999
  endloop
endfacet
facet normal 0.7933533402911921 -2.9160071592575316e-15 -0.6087614290087768
  outer loop
    vertex 535.9887973007096 1234.3597108128224 8.999999999999977
    vertex 536.4655531685034 1229.3597108128217 9.621320343559642
    vertex 535.9887973007096 1229.3597108128217 9.0
  endloop
endfacet
facet normal 0.7933533402911921 -2.9160071592575316e-15 -0.6087614290087768
  outer loop
    vertex 536.4655531685034 1229.3597108128217 9.621320343559642
    vertex 535.9887973007096 1234.3597108128224 8.999999999999977
    vertex 536.4655531685034 1234.3597108128224 9.621320343559619
  endloop
endfacet
facet normal -0.6087614290087766 -3.9048486976714835e-15 0.7933533402911922
  outer loop
    vertex 540.7081938556227 1229.3597108128217 5.378679656440356
    vertex 540.0868735120631 1234.3597108128224 4.901923788646753
    vertex 540.086873512063 1229.3597108128217 4.901923788646684
  endloop
endfacet
facet normal -0.6087614290087766 -3.9048486976714835e-15 0.7933533402911922
  outer loop
    vertex 540.0868735120631 1234.3597108128224 4.901923788646753
    vertex 540.7081938556227 1229.3597108128217 5.378679656440356
    vertex 540.7081938556227 1234.3597108128224 5.378679656440406
  endloop
endfacet
facet normal 0.38268343236505226 -1.112448336542336e-15 0.9238795325113025
  outer loop
    vertex 537.8104163767554 1229.3597108128217 4.602222521132796
    vertex 537.0868735120631 1234.3597108128224 4.901923788646573
    vertex 537.086873512063 1229.3597108128217 4.901923788646685
  endloop
endfacet
facet normal 0.38268343236505226 -1.112448336542336e-15 0.9238795325113025
  outer loop
    vertex 537.0868735120631 1234.3597108128224 4.901923788646573
    vertex 537.8104163767554 1229.3597108128217 4.602222521132796
    vertex 537.8104163767556 1234.3597108128224 4.60222252113277
  endloop
endfacet
facet normal 0.7933533402911693 -6.547055476779955e-15 0.6087614290088066
  outer loop
    vertex 536.4655531685036 1234.3597108128224 5.378679656440226
    vertex 535.9887973007096 1229.3597108128217 6.000000000000001
    vertex 536.4655531685034 1229.3597108128217 5.378679656440358
  endloop
endfacet
facet normal 0.7933533402911693 -6.547055476779955e-15 0.6087614290088066
  outer loop
    vertex 535.9887973007096 1229.3597108128217 6.000000000000001
    vertex 536.4655531685036 1234.3597108128224 5.378679656440226
    vertex 535.9887973007096 1234.3597108128224 6.000000000000006
  endloop
endfacet
facet normal -0.7933533402911553 8.792963129505573e-15 -0.6087614290088248
  outer loop
    vertex 540.7081938556227 1234.3597108128222 9.621320343559635
    vertex 541.1849497234164 1229.3597108128217 8.999999999999998
    vertex 540.7081938556227 1229.3597108128217 9.621320343559642
  endloop
endfacet
facet normal -0.7933533402911553 8.792963129505573e-15 -0.6087614290088248
  outer loop
    vertex 541.1849497234164 1229.3597108128217 8.999999999999998
    vertex 540.7081938556227 1234.3597108128222 9.621320343559635
    vertex 541.1849497234165 1234.3597108128224 9.000000000000032
  endloop
endfacet
facet normal 0.6087614290087492 -2.564963101284638e-15 0.7933533402912133
  outer loop
    vertex 537.086873512063 1229.3597108128217 4.901923788646685
    vertex 536.4655531685036 1234.3597108128224 5.378679656440226
    vertex 536.4655531685034 1229.3597108128217 5.378679656440358
  endloop
endfacet
facet normal 0.6087614290087492 -2.564963101284638e-15 0.7933533402912133
  outer loop
    vertex 536.4655531685036 1234.3597108128224 5.378679656440226
    vertex 537.086873512063 1229.3597108128217 4.901923788646685
    vertex 537.0868735120631 1234.3597108128224 4.901923788646573
  endloop
endfacet
facet normal -0.7933533402911869 -4.67719372623906e-15 0.6087614290087837
  outer loop
    vertex 541.1849497234164 1234.3597108128224 6.000000000000027
    vertex 540.7081938556227 1229.3597108128217 5.378679656440356
    vertex 541.1849497234164 1229.3597108128217 5.999999999999999
  endloop
endfacet
facet normal -0.7933533402911869 -4.67719372623906e-15 0.6087614290087837
  outer loop
    vertex 540.7081938556227 1229.3597108128217 5.378679656440356
    vertex 541.1849497234164 1234.3597108128224 6.000000000000027
    vertex 540.7081938556227 1234.3597108128224 5.378679656440406
  endloop
endfacet
facet normal 0.9238795325112763 7.906050089891613e-15 -0.382683432365115
  outer loop
    vertex 535.6890960331957 1234.3597108128224 8.276457135307576
    vertex 535.9887973007096 1229.3597108128217 9.0
    vertex 535.6890960331958 1229.3597108128217 8.276457135307563
  endloop
endfacet
facet normal 0.9238795325112763 7.906050089891613e-15 -0.382683432365115
  outer loop
    vertex 535.9887973007096 1229.3597108128217 9.0
    vertex 535.6890960331957 1234.3597108128224 8.276457135307576
    vertex 535.9887973007096 1234.3597108128224 8.999999999999977
  endloop
endfacet
facet normal -0.9914448613738039 -1.826019330808958e-17 0.13052619222010134
  outer loop
    vertex 541.586873512063 1234.3597108128224 7.499999999999999
    vertex 541.4846509909302 1229.3597108128217 6.723542864692436
    vertex 541.586873512063 1229.3597108128217 7.5
  endloop
endfacet
facet normal -0.9914448613738039 -1.826019330808958e-17 0.13052619222010134
  outer loop
    vertex 541.4846509909302 1229.3597108128217 6.723542864692436
    vertex 541.586873512063 1234.3597108128224 7.499999999999999
    vertex 541.4846509909302 1234.3597108128224 6.723542864692439
  endloop
endfacet
facet normal 0.13052619222002076 -3.534443016711637e-15 0.9914448613738145
  outer loop
    vertex 538.586873512063 1229.3597108128217 4.5
    vertex 537.8104163767556 1234.3597108128224 4.60222252113277
    vertex 537.8104163767554 1229.3597108128217 4.602222521132796
  endloop
endfacet
facet normal 0.13052619222002076 -3.534443016711637e-15 0.9914448613738145
  outer loop
    vertex 537.8104163767556 1234.3597108128224 4.60222252113277
    vertex 538.586873512063 1229.3597108128217 4.5
    vertex 538.5868735120631 1234.3597108128224 4.500000000000026
  endloop
endfacet
facet normal -0.13052619222007067 3.3544211026238788e-15 -0.9914448613738079
  outer loop
    vertex 538.5868735120631 1234.3597108128224 10.500000000000027
    vertex 539.3633306473706 1229.3597108128217 10.397777478867205
    vertex 538.586873512063 1229.3597108128217 10.5
  endloop
endfacet
facet normal -0.13052619222007067 3.3544211026238788e-15 -0.9914448613738079
  outer loop
    vertex 539.3633306473706 1229.3597108128217 10.397777478867205
    vertex 538.5868735120631 1234.3597108128224 10.500000000000027
    vertex 539.3633306473705 1234.3597108128224 10.397777478867214
  endloop
endfacet
facet normal -0.9914448613738118 9.388005798042454e-15 -0.13052619222004183
  outer loop
    vertex 541.4846509909303 1234.3597108128224 8.276457135307597
    vertex 541.586873512063 1229.3597108128217 7.5
    vertex 541.4846509909302 1229.3597108128217 8.276457135307561
  endloop
endfacet
facet normal -0.9914448613738118 9.388005798042454e-15 -0.13052619222004183
  outer loop
    vertex 541.586873512063 1229.3597108128217 7.5
    vertex 541.4846509909303 1234.3597108128224 8.276457135307597
    vertex 541.586873512063 1234.3597108128224 7.499999999999999
  endloop
endfacet
facet normal -0.13052619222004197 -2.176310338426716e-15 0.9914448613738116
  outer loop
    vertex 539.3633306473706 1229.3597108128217 4.602222521132796
    vertex 538.5868735120631 1234.3597108128224 4.500000000000026
    vertex 538.586873512063 1229.3597108128217 4.5
  endloop
endfacet
facet normal -0.13052619222004197 -2.176310338426716e-15 0.9914448613738116
  outer loop
    vertex 538.5868735120631 1234.3597108128224 4.500000000000026
    vertex 539.3633306473706 1229.3597108128217 4.602222521132796
    vertex 539.3633306473706 1234.3597108128224 4.602222521132804
  endloop
endfacet
facet normal -0.382683432365108 -6.645086463551333e-15 -0.9238795325112793
  outer loop
    vertex 540.0868735120629 1234.3597108128224 10.098076211353309
    vertex 539.3633306473706 1229.3597108128217 10.397777478867205
    vertex 539.3633306473705 1234.3597108128224 10.397777478867214
  endloop
endfacet
facet normal -0.382683432365108 -6.645086463551333e-15 -0.9238795325112793
  outer loop
    vertex 539.3633306473706 1229.3597108128217 10.397777478867205
    vertex 540.0868735120629 1234.3597108128224 10.098076211353309
    vertex 540.086873512063 1229.3597108128217 10.098076211353314
  endloop
endfacet
facet normal 0.9914448613738116 9.093688389956411e-15 -0.1305261922200434
  outer loop
    vertex 535.586873512063 1234.3597108128224 7.499999999999999
    vertex 535.6890960331958 1229.3597108128217 8.276457135307563
    vertex 535.586873512063 1229.3597108128217 7.5
  endloop
endfacet
facet normal 0.9914448613738116 9.093688389956411e-15 -0.1305261922200434
  outer loop
    vertex 535.6890960331958 1229.3597108128217 8.276457135307563
    vertex 535.586873512063 1234.3597108128224 7.499999999999999
    vertex 535.6890960331957 1234.3597108128224 8.276457135307576
  endloop
endfacet
facet normal 0.13052619222004908 2.0565515009584897e-15 -0.9914448613738107
  outer loop
    vertex 537.8104163767556 1234.3597108128224 10.397777478867237
    vertex 538.586873512063 1229.3597108128217 10.5
    vertex 537.8104163767554 1229.3597108128217 10.397777478867205
  endloop
endfacet
facet normal 0.13052619222004908 2.0565515009584897e-15 -0.9914448613738107
  outer loop
    vertex 538.586873512063 1229.3597108128217 10.5
    vertex 537.8104163767556 1234.3597108128224 10.397777478867237
    vertex 538.5868735120631 1234.3597108128224 10.500000000000027
  endloop
endfacet
facet normal -0.923879532511298 -1.1606643374507378e-15 0.3826834323650632
  outer loop
    vertex 541.4846509909302 1234.3597108128224 6.723542864692439
    vertex 541.1849497234164 1229.3597108128217 5.999999999999999
    vertex 541.4846509909302 1229.3597108128217 6.723542864692436
  endloop
endfacet
facet normal -0.923879532511298 -1.1606643374507378e-15 0.3826834323650632
  outer loop
    vertex 541.1849497234164 1229.3597108128217 5.999999999999999
    vertex 541.4846509909302 1234.3597108128224 6.723542864692439
    vertex 541.1849497234164 1234.3597108128224 6.000000000000027
  endloop
endfacet
facet normal -0.923879532511289 -4.706592676044713e-15 -0.3826834323650846
  outer loop
    vertex 357.00147469929027 1234.3597108128224 8.999999999999986
    vertex 357.3011759668042 1229.359710812822 8.276457135307561
    vertex 357.00147469929027 1229.359710812822 8.999999999999998
  endloop
endfacet
facet normal -0.923879532511289 -4.706592676044713e-15 -0.3826834323650846
  outer loop
    vertex 357.3011759668042 1229.359710812822 8.276457135307561
    vertex 357.00147469929027 1234.3597108128224 8.999999999999986
    vertex 357.3011759668041 1234.3597108128224 8.27645713530756
  endloop
endfacet
facet normal 0.6087614290087351 6.780580668060948e-16 0.7933533402912241
  outer loop
    vertex 352.90339848793695 1229.359710812822 4.901923788646685
    vertex 352.28207814437735 1234.3597108128224 5.378679656440361
    vertex 352.28207814437735 1229.359710812822 5.378679656440358
  endloop
endfacet
facet normal 0.6087614290087351 6.780580668060948e-16 0.7933533402912241
  outer loop
    vertex 352.28207814437735 1234.3597108128224 5.378679656440361
    vertex 352.90339848793695 1229.359710812822 4.901923788646685
    vertex 352.9033984879369 1234.3597108128224 4.901923788646708
  endloop
endfacet
facet normal -0.9238795325112805 4.561282359355537e-16 0.3826834323651053
  outer loop
    vertex 357.3011759668042 1234.3597108128224 6.723542864692433
    vertex 357.00147469929027 1229.359710812822 5.999999999999999
    vertex 357.3011759668042 1229.359710812822 6.723542864692436
  endloop
endfacet
facet normal -0.9238795325112805 4.561282359355537e-16 0.3826834323651053
  outer loop
    vertex 357.00147469929027 1229.359710812822 5.999999999999999
    vertex 357.3011759668042 1234.3597108128224 6.723542864692433
    vertex 357.00147469929027 1234.3597108128224 5.999999999999989
  endloop
endfacet
facet normal -0.9914448613738114 -9.019917208993065e-15 -0.13052619222004486
  outer loop
    vertex 357.3011759668041 1234.3597108128224 8.27645713530756
    vertex 357.40339848793695 1229.359710812822 7.5
    vertex 357.3011759668042 1229.359710812822 8.276457135307561
  endloop
endfacet
facet normal -0.9914448613738114 -9.019917208993065e-15 -0.13052619222004486
  outer loop
    vertex 357.40339848793695 1229.359710812822 7.5
    vertex 357.3011759668041 1234.3597108128224 8.27645713530756
    vertex 357.4033984879369 1234.3597108128224 7.499999999999997
  endloop
endfacet
facet normal 0.3826834323650689 -2.5738717267503848e-15 0.9238795325112954
  outer loop
    vertex 352.90339848793695 1229.359710812822 4.901923788646685
    vertex 353.6269413526295 1234.3597108128224 4.602222521132782
    vertex 352.9033984879369 1234.3597108128224 4.901923788646708
  endloop
endfacet
facet normal 0.3826834323650689 -2.5738717267503848e-15 0.9238795325112954
  outer loop
    vertex 353.6269413526295 1234.3597108128224 4.602222521132782
    vertex 352.90339848793695 1229.359710812822 4.901923788646685
    vertex 353.62694135262944 1229.359710812822 4.602222521132796
  endloop
endfacet
facet normal -0.38268343236508673 -2.567442850778669e-16 0.9238795325112881
  outer loop
    vertex 355.903398487937 1229.359710812822 4.901923788646684
    vertex 355.17985562324463 1234.3597108128224 4.602222521132827
    vertex 355.1798556232445 1229.359710812822 4.602222521132796
  endloop
endfacet
facet normal -0.38268343236508673 -2.567442850778669e-16 0.9238795325112881
  outer loop
    vertex 355.17985562324463 1234.3597108128224 4.602222521132827
    vertex 355.903398487937 1229.359710812822 4.901923788646684
    vertex 355.90339848793707 1234.3597108128224 4.901923788646731
  endloop
endfacet
facet normal 0.9238795325112801 2.5697365404819985e-17 0.3826834323651062
  outer loop
    vertex 351.8053222765837 1234.3597108128224 6.0
    vertex 351.5056210090698 1229.359710812822 6.723542864692439
    vertex 351.8053222765837 1229.359710812822 6.000000000000001
  endloop
endfacet
facet normal 0.9238795325112801 2.5697365404819985e-17 0.3826834323651062
  outer loop
    vertex 351.5056210090698 1229.359710812822 6.723542864692439
    vertex 351.8053222765837 1234.3597108128224 6.0
    vertex 351.5056210090698 1234.3597108128224 6.723542864692439
  endloop
endfacet
facet normal 0.9914448613738114 -3.725079434849194e-17 0.1305261922200446
  outer loop
    vertex 351.5056210090698 1234.3597108128224 6.723542864692439
    vertex 351.40339848793695 1229.359710812822 7.5
    vertex 351.5056210090698 1229.359710812822 6.723542864692439
  endloop
endfacet
facet normal 0.9914448613738114 -3.725079434849194e-17 0.1305261922200446
  outer loop
    vertex 351.40339848793695 1229.359710812822 7.5
    vertex 351.5056210090698 1234.3597108128224 6.723542864692439
    vertex 351.40339848793695 1234.3597108128224 7.5000000000000036
  endloop
endfacet
facet normal 0.3826834323650749 -4.039451484293114e-15 -0.923879532511293
  outer loop
    vertex 537.8104163767556 1234.3597108128224 10.397777478867237
    vertex 537.086873512063 1229.3597108128217 10.098076211353316
    vertex 537.086873512063 1234.3597108128224 10.098076211353316
  endloop
endfacet
facet normal 0.3826834323650749 -4.039451484293114e-15 -0.923879532511293
  outer loop
    vertex 537.086873512063 1229.3597108128217 10.098076211353316
    vertex 537.8104163767556 1234.3597108128224 10.397777478867237
    vertex 537.8104163767554 1229.3597108128217 10.397777478867205
  endloop
endfacet
facet normal 0.6087614290087675 -1.902327010135653e-15 -0.7933533402911992
  outer loop
    vertex 537.086873512063 1234.3597108128224 10.098076211353316
    vertex 536.4655531685034 1229.3597108128217 9.621320343559642
    vertex 536.4655531685034 1234.3597108128224 9.621320343559619
  endloop
endfacet
facet normal 0.6087614290087675 -1.902327010135653e-15 -0.7933533402911992
  outer loop
    vertex 536.4655531685034 1229.3597108128217 9.621320343559642
    vertex 537.086873512063 1234.3597108128224 10.098076211353316
    vertex 537.086873512063 1229.3597108128217 10.098076211353316
  endloop
endfacet
facet normal 0.9238795325112998 -1.327697212582009e-16 0.38268343236505875
  outer loop
    vertex 535.9887973007096 1234.3597108128224 6.000000000000006
    vertex 535.6890960331958 1229.3597108128217 6.723542864692439
    vertex 535.9887973007096 1229.3597108128217 6.000000000000001
  endloop
endfacet
facet normal 0.9238795325112998 -1.327697212582009e-16 0.38268343236505875
  outer loop
    vertex 535.6890960331958 1229.3597108128217 6.723542864692439
    vertex 535.9887973007096 1234.3597108128224 6.000000000000006
    vertex 535.6890960331958 1234.3597108128224 6.723542864692438
  endloop
endfacet
facet normal -0.9914448613738152 -4.398571425317252e-15 0.13052619222001605
  outer loop
    vertex 357.4033984879369 1234.3597108128224 7.499999999999997
    vertex 357.3011759668042 1229.359710812822 6.723542864692436
    vertex 357.40339848793695 1229.359710812822 7.5
  endloop
endfacet
facet normal -0.9914448613738152 -4.398571425317252e-15 0.13052619222001605
  outer loop
    vertex 357.3011759668042 1229.359710812822 6.723542864692436
    vertex 357.4033984879369 1234.3597108128224 7.499999999999997
    vertex 357.3011759668042 1234.3597108128224 6.723542864692433
  endloop
endfacet
facet normal -0.7933533402912477 1.1173485376594564e-15 0.6087614290087043
  outer loop
    vertex 357.00147469929027 1234.3597108128224 5.999999999999989
    vertex 356.5247188314966 1229.359710812822 5.378679656440356
    vertex 357.00147469929027 1229.359710812822 5.999999999999999
  endloop
endfacet
facet normal -0.7933533402912477 1.1173485376594564e-15 0.6087614290087043
  outer loop
    vertex 356.5247188314966 1229.359710812822 5.378679656440356
    vertex 357.00147469929027 1234.3597108128224 5.999999999999989
    vertex 356.5247188314966 1234.3597108128224 5.378679656440347
  endloop
endfacet
facet normal -0.6087614290087487 -2.658379950108868e-15 -0.7933533402912136
  outer loop
    vertex 355.9033984879371 1234.3597108128224 10.098076211353218
    vertex 356.5247188314966 1229.359710812822 9.621320343559642
    vertex 355.903398487937 1229.359710812822 10.098076211353314
  endloop
endfacet
facet normal -0.6087614290087487 -2.658379950108868e-15 -0.7933533402912136
  outer loop
    vertex 356.5247188314966 1229.359710812822 9.621320343559642
    vertex 355.9033984879371 1234.3597108128224 10.098076211353218
    vertex 356.52471883149667 1234.3597108128222 9.621320343559566
  endloop
endfacet
facet normal -0.3826834323651114 -3.71134199312757e-15 0.923879532511278
  outer loop
    vertex 540.086873512063 1229.3597108128217 4.901923788646684
    vertex 539.3633306473706 1234.3597108128224 4.602222521132804
    vertex 539.3633306473706 1229.3597108128217 4.602222521132796
  endloop
endfacet
facet normal -0.3826834323651114 -3.71134199312757e-15 0.923879532511278
  outer loop
    vertex 539.3633306473706 1234.3597108128224 4.602222521132804
    vertex 540.086873512063 1229.3597108128217 4.901923788646684
    vertex 540.0868735120631 1234.3597108128224 4.901923788646753
  endloop
endfacet
facet normal 0.9238795325112809 8.934388214305098e-15 -0.38268343236510455
  outer loop
    vertex 351.5056210090697 1234.3597108128224 8.276457135307567
    vertex 351.8053222765837 1229.359710812822 9.0
    vertex 351.5056210090698 1229.359710812822 8.276457135307563
  endloop
endfacet
facet normal 0.9238795325112809 8.934388214305098e-15 -0.38268343236510455
  outer loop
    vertex 351.8053222765837 1229.359710812822 9.0
    vertex 351.5056210090697 1234.3597108128224 8.276457135307567
    vertex 351.80532227658364 1234.3597108128224 9.000000000000012
  endloop
endfacet
facet normal -0.7933533402912478 -1.743671949269038e-15 -0.6087614290087044
  outer loop
    vertex 356.52471883149667 1234.3597108128222 9.621320343559566
    vertex 357.00147469929027 1229.359710812822 8.999999999999998
    vertex 356.5247188314966 1229.359710812822 9.621320343559642
  endloop
endfacet
facet normal -0.7933533402912478 -1.743671949269038e-15 -0.6087614290087044
  outer loop
    vertex 357.00147469929027 1229.359710812822 8.999999999999998
    vertex 356.52471883149667 1234.3597108128222 9.621320343559566
    vertex 357.00147469929027 1234.3597108128224 8.999999999999986
  endloop
endfacet
facet normal 0.7933533402912374 6.044756504812327e-15 -0.6087614290087178
  outer loop
    vertex 351.80532227658364 1234.3597108128224 9.000000000000012
    vertex 352.28207814437735 1229.359710812822 9.621320343559642
    vertex 351.8053222765837 1229.359710812822 9.0
  endloop
endfacet
facet normal 0.7933533402912374 6.044756504812327e-15 -0.6087614290087178
  outer loop
    vertex 352.28207814437735 1229.359710812822 9.621320343559642
    vertex 351.80532227658364 1234.3597108128224 9.000000000000012
    vertex 352.2820781443773 1234.3597108128224 9.621320343559612
  endloop
endfacet
facet normal 0.1305261922200528 4.697171105569806e-16 0.9914448613738103
  outer loop
    vertex 354.40339848793695 1229.359710812822 4.5
    vertex 353.6269413526295 1234.3597108128224 4.602222521132782
    vertex 353.62694135262944 1229.359710812822 4.602222521132796
  endloop
endfacet
facet normal 0.1305261922200528 4.697171105569806e-16 0.9914448613738103
  outer loop
    vertex 353.6269413526295 1234.3597108128224 4.602222521132782
    vertex 354.40339848793695 1229.359710812822 4.5
    vertex 354.403398487937 1234.3597108128224 4.499999999999992
  endloop
endfacet
facet normal -0.13052619222007367 -4.697171105566918e-16 0.9914448613738077
  outer loop
    vertex 355.1798556232445 1229.359710812822 4.602222521132796
    vertex 354.403398487937 1234.3597108128224 4.499999999999992
    vertex 354.40339848793695 1229.359710812822 4.5
  endloop
endfacet
facet normal -0.13052619222007367 -4.697171105566918e-16 0.9914448613738077
  outer loop
    vertex 354.403398487937 1234.3597108128224 4.499999999999992
    vertex 355.1798556232445 1229.359710812822 4.602222521132796
    vertex 355.17985562324463 1234.3597108128224 4.602222521132827
  endloop
endfacet
facet normal 0.3826834323650686 4.893003470797105e-16 -0.9238795325112956
  outer loop
    vertex 353.6269413526295 1234.3597108128224 10.397777478867237
    vertex 352.90339848793695 1229.359710812822 10.098076211353316
    vertex 352.9033984879369 1234.3597108128224 10.098076211353309
  endloop
endfacet
facet normal 0.3826834323650686 4.893003470797105e-16 -0.9238795325112956
  outer loop
    vertex 352.90339848793695 1229.359710812822 10.098076211353316
    vertex 353.6269413526295 1234.3597108128224 10.397777478867237
    vertex 353.62694135262944 1229.359710812822 10.397777478867205
  endloop
endfacet
facet normal -0.3826834323650876 -6.051560279478009e-15 -0.9238795325112878
  outer loop
    vertex 355.1798556232447 1234.3597108128224 10.397777478867123
    vertex 355.903398487937 1229.359710812822 10.098076211353314
    vertex 355.1798556232445 1229.359710812822 10.397777478867205
  endloop
endfacet
facet normal -0.3826834323650876 -6.051560279478009e-15 -0.9238795325112878
  outer loop
    vertex 355.903398487937 1229.359710812822 10.098076211353314
    vertex 355.1798556232447 1234.3597108128224 10.397777478867123
    vertex 355.9033984879371 1234.3597108128224 10.098076211353218
  endloop
endfacet
facet normal 0.6087614290087396 2.4793103776365266e-15 -0.7933533402912206
  outer loop
    vertex 352.9033984879369 1234.3597108128224 10.098076211353309
    vertex 352.28207814437735 1229.359710812822 9.621320343559642
    vertex 352.2820781443773 1234.3597108128224 9.621320343559612
  endloop
endfacet
facet normal 0.6087614290087396 2.4793103776365266e-15 -0.7933533402912206
  outer loop
    vertex 352.28207814437735 1229.359710812822 9.621320343559642
    vertex 352.9033984879369 1234.3597108128224 10.098076211353309
    vertex 352.90339848793695 1229.359710812822 10.098076211353316
  endloop
endfacet
facet normal 0.9914448613738152 4.547574602711186e-15 -0.13052619222001627
  outer loop
    vertex 351.40339848793695 1234.3597108128224 7.5000000000000036
    vertex 351.5056210090698 1229.359710812822 8.276457135307563
    vertex 351.40339848793695 1229.359710812822 7.5
  endloop
endfacet
facet normal 0.9914448613738152 4.547574602711186e-15 -0.13052619222001627
  outer loop
    vertex 351.5056210090698 1229.359710812822 8.276457135307563
    vertex 351.40339848793695 1234.3597108128224 7.5000000000000036
    vertex 351.5056210090697 1234.3597108128224 8.276457135307567
  endloop
endfacet
facet normal -0.6087614290087344 2.5291778625064582e-15 0.7933533402912248
  outer loop
    vertex 356.5247188314966 1229.359710812822 5.378679656440356
    vertex 355.90339848793707 1234.3597108128224 4.901923788646731
    vertex 355.903398487937 1229.359710812822 4.901923788646684
  endloop
endfacet
facet normal -0.6087614290087344 2.5291778625064582e-15 0.7933533402912248
  outer loop
    vertex 355.90339848793707 1234.3597108128224 4.901923788646731
    vertex 356.5247188314966 1229.359710812822 5.378679656440356
    vertex 356.5247188314966 1234.3597108128224 5.378679656440347
  endloop
endfacet
facet normal 0.13052619222003153 4.697171105572742e-16 -0.9914448613738132
  outer loop
    vertex 353.6269413526295 1234.3597108128224 10.397777478867237
    vertex 354.40339848793695 1229.359710812822 10.5
    vertex 353.62694135262944 1229.359710812822 10.397777478867205
  endloop
endfacet
facet normal 0.13052619222003153 4.697171105572742e-16 -0.9914448613738132
  outer loop
    vertex 354.40339848793695 1229.359710812822 10.5
    vertex 353.6269413526295 1234.3597108128224 10.397777478867237
    vertex 354.403398487937 1234.3597108128224 10.499999999999993
  endloop
endfacet
facet normal -0.13052619222009115 -6.59131149901696e-15 -0.9914448613738053
  outer loop
    vertex 354.403398487937 1234.3597108128224 10.499999999999993
    vertex 355.1798556232445 1229.359710812822 10.397777478867205
    vertex 354.40339848793695 1229.359710812822 10.5
  endloop
endfacet
facet normal -0.13052619222009115 -6.59131149901696e-15 -0.9914448613738053
  outer loop
    vertex 355.1798556232445 1229.359710812822 10.397777478867205
    vertex 354.403398487937 1234.3597108128224 10.499999999999993
    vertex 355.1798556232447 1234.3597108128224 10.397777478867123
  endloop
endfacet
facet normal 0.7933533402912473 -1.260423655286583e-16 0.6087614290087049
  outer loop
    vertex 352.28207814437735 1234.3597108128224 5.378679656440361
    vertex 351.8053222765837 1229.359710812822 6.000000000000001
    vertex 352.28207814437735 1229.359710812822 5.378679656440358
  endloop
endfacet
facet normal 0.7933533402912473 -1.260423655286583e-16 0.6087614290087049
  outer loop
    vertex 351.8053222765837 1229.359710812822 6.000000000000001
    vertex 352.28207814437735 1234.3597108128224 5.378679656440361
    vertex 351.8053222765837 1234.3597108128224 6.0
  endloop
endfacet
endsolid Water Tower Parts
