solid Water Tower Parts
facet normal -0.6087614290087321 0.7933533402912264 -1.5741173862148275e-18
  outer loop
    vertex 837.0914832127253 1188.7066927614226 100.0
    vertex 842.7869196953553 1193.0769548828648 4.999999999999999
    vertex 837.0914832127253 1188.7066927614226 4.999999999999999
  endloop
endfacet
facet normal -0.6087614290087321 0.7933533402912264 -1.5741173862148275e-18
  outer loop
    vertex 842.7869196953553 1193.0769548828648 4.999999999999999
    vertex 837.0914832127253 1188.7066927614226 100.0
    vertex 842.7869196953553 1193.0769548828648 100.0
  endloop
endfacet
facet normal -0.3826834323650847 0.9238795325112888 -0.0
  outer loop
    vertex 830.4590069530446 1185.9594311425453 100.0
    vertex 837.0914832127253 1188.7066927614226 4.999999999999999
    vertex 830.4590069530446 1185.9594311425453 4.999999999999999
  endloop
endfacet
facet normal -0.3826834323650847 0.9238795325112888 -0.0
  outer loop
    vertex 837.0914832127253 1188.7066927614226 4.999999999999999
    vertex 830.4590069530446 1185.9594311425453 100.0
    vertex 837.0914832127253 1188.7066927614226 100.0
  endloop
endfacet
facet normal -0.9238795325112816 -0.3826834323651025 0.0
  outer loop
    vertex 847.1571818167971 1226.2723913654945 100.0
    vertex 849.9044434356745 1219.6399151058142 4.999999999999999
    vertex 849.9044434356745 1219.6399151058142 100.0
  endloop
endfacet
facet normal -0.9238795325112816 -0.3826834323651025 0.0
  outer loop
    vertex 849.9044434356745 1219.6399151058142 4.999999999999999
    vertex 847.1571818167971 1226.2723913654945 100.0
    vertex 847.1571818167971 1226.2723913654945 4.999999999999999
  endloop
endfacet
facet normal -0.1305261922200608 0.9914448613738094 -0.0
  outer loop
    vertex 823.3414832127255 1185.0223913654947 100.0
    vertex 830.4590069530446 1185.9594311425453 4.999999999999999
    vertex 823.3414832127255 1185.0223913654947 4.999999999999999
  endloop
endfacet
facet normal -0.1305261922200608 0.9914448613738094 -0.0
  outer loop
    vertex 830.4590069530446 1185.9594311425453 4.999999999999999
    vertex 823.3414832127255 1185.0223913654947 100.0
    vertex 830.4590069530446 1185.9594311425453 100.0
  endloop
endfacet
facet normal 0.13052619222004777 0.9914448613738109 -0.0
  outer loop
    vertex 816.2239594724058 1185.9594311425453 100.0
    vertex 823.3414832127255 1185.0223913654947 4.999999999999999
    vertex 816.2239594724058 1185.9594311425453 4.999999999999999
  endloop
endfacet
facet normal 0.13052619222004777 0.9914448613738109 -0.0
  outer loop
    vertex 823.3414832127255 1185.0223913654947 4.999999999999999
    vertex 816.2239594724058 1185.9594311425453 100.0
    vertex 823.3414832127255 1185.0223913654947 100.0
  endloop
endfacet
facet normal -0.793353340291208 -0.6087614290087564 0.0
  outer loop
    vertex 842.786919695355 1231.9678278481242 100.0
    vertex 847.1571818167971 1226.2723913654945 4.999999999999999
    vertex 847.1571818167971 1226.2723913654945 100.0
  endloop
endfacet
facet normal -0.793353340291208 -0.6087614290087564 0.0
  outer loop
    vertex 847.1571818167971 1226.2723913654945 4.999999999999999
    vertex 842.786919695355 1231.9678278481242 100.0
    vertex 842.786919695355 1231.9678278481242 4.999999999999999
  endloop
endfacet
facet normal -0.99144486137381 0.1305261922200543 0.0
  outer loop
    vertex 850.841483212725 1212.5223913654947 100.0
    vertex 849.9044434356745 1205.4048676251753 4.999999999999999
    vertex 849.9044434356745 1205.4048676251753 100.0
  endloop
endfacet
facet normal -0.99144486137381 0.1305261922200543 0.0
  outer loop
    vertex 849.9044434356745 1205.4048676251753 4.999999999999999
    vertex 850.841483212725 1212.5223913654947 100.0
    vertex 850.841483212725 1212.5223913654947 4.999999999999999
  endloop
endfacet
facet normal 0.38268343236508473 0.9238795325112891 -4.167983482196091e-31
  outer loop
    vertex 809.591483212725 1188.7066927614226 100.0
    vertex 816.2239594724058 1185.9594311425453 4.999999999999999
    vertex 809.591483212725 1188.7066927614226 4.999999999999999
  endloop
endfacet
facet normal 0.38268343236508473 0.9238795325112891 -4.167983482196091e-31
  outer loop
    vertex 816.2239594724058 1185.9594311425453 4.999999999999999
    vertex 809.591483212725 1188.7066927614226 100.0
    vertex 816.2239594724058 1185.9594311425453 100.0
  endloop
endfacet
facet normal -0.6087614290087637 -0.7933533402912023 0.0
  outer loop
    vertex 842.786919695355 1231.9678278481242 100.0
    vertex 837.0914832127249 1236.3380899695667 4.999999999999999
    vertex 842.786919695355 1231.9678278481242 4.999999999999999
  endloop
endfacet
facet normal -0.6087614290087637 -0.7933533402912023 0.0
  outer loop
    vertex 837.0914832127249 1236.3380899695667 4.999999999999999
    vertex 842.786919695355 1231.9678278481242 100.0
    vertex 837.0914832127249 1236.3380899695667 100.0
  endloop
endfacet
facet normal -0.9914448613738105 -0.13052619222005105 -5.17962270013368e-19
  outer loop
    vertex 849.9044434356745 1219.6399151058142 100.0
    vertex 850.841483212725 1212.5223913654947 4.999999999999999
    vertex 850.841483212725 1212.5223913654947 100.0
  endloop
endfacet
facet normal -0.9914448613738105 -0.13052619222005105 -5.17962270013368e-19
  outer loop
    vertex 850.841483212725 1212.5223913654947 4.999999999999999
    vertex 849.9044434356745 1219.6399151058142 100.0
    vertex 849.9044434356745 1219.6399151058142 4.999999999999999
  endloop
endfacet
facet normal -0.38268343236503805 -0.9238795325113084 -2.0839917410980886e-31
  outer loop
    vertex 837.0914832127249 1236.3380899695667 100.0
    vertex 830.4590069530446 1239.0853515884435 4.999999999999999
    vertex 837.0914832127249 1236.3380899695667 4.999999999999999
  endloop
endfacet
facet normal -0.38268343236503805 -0.9238795325113084 -2.0839917410980886e-31
  outer loop
    vertex 830.4590069530446 1239.0853515884435 4.999999999999999
    vertex 837.0914832127249 1236.3380899695667 100.0
    vertex 830.4590069530446 1239.0853515884435 100.0
  endloop
endfacet
facet normal -0.9238795325112816 0.3826834323651025 0.0
  outer loop
    vertex 849.9044434356745 1205.4048676251753 100.0
    vertex 847.1571818167971 1198.772391365495 4.999999999999999
    vertex 847.1571818167971 1198.772391365495 100.0
  endloop
endfacet
facet normal -0.9238795325112816 0.3826834323651025 0.0
  outer loop
    vertex 847.1571818167971 1198.772391365495 4.999999999999999
    vertex 849.9044434356745 1205.4048676251753 100.0
    vertex 849.9044434356745 1205.4048676251753 4.999999999999999
  endloop
endfacet
facet normal -0.7933533402912506 0.6087614290087004 0.0
  outer loop
    vertex 847.1571818167971 1198.772391365495 100.0
    vertex 842.7869196953553 1193.0769548828648 4.999999999999999
    vertex 842.7869196953553 1193.0769548828648 100.0
  endloop
endfacet
facet normal -0.7933533402912506 0.6087614290087004 0.0
  outer loop
    vertex 842.7869196953553 1193.0769548828648 4.999999999999999
    vertex 847.1571818167971 1198.772391365495 100.0
    vertex 847.1571818167971 1198.772391365495 4.999999999999999
  endloop
endfacet
facet normal -0.0 -0.0 1.0
  outer loop
    vertex 793.8966194840548 1195.5223913654943 100.0
    vertex 796.7785229897756 1205.4048676251753 100.0
    vertex 795.8414832127252 1212.5223913654947 100.0
  endloop
endfacet
facet normal -0.0 -0.0 1.0
  outer loop
    vertex 796.7785229897756 1205.4048676251753 100.0
    vertex 793.8966194840548 1195.5223913654943 100.0
    vertex 799.2998526523832 1188.4807608051517 100.0
  endloop
endfacet
facet normal -0.0 -0.0 1.0
  outer loop
    vertex 796.7785229897756 1205.4048676251753 100.0
    vertex 799.2998526523832 1188.4807608051517 100.0
    vertex 799.5257846086531 1198.7723913654945 100.0
  endloop
endfacet
facet normal -0.0 -0.0 1.0
  outer loop
    vertex 799.5257846086531 1198.7723913654945 100.0
    vertex 799.2998526523832 1188.4807608051517 100.0
    vertex 806.3414832127258 1183.0775276368233 100.0
  endloop
endfacet
facet normal -0.0 -0.0 1.0
  outer loop
    vertex 799.5257846086531 1198.7723913654945 100.0
    vertex 806.3414832127258 1183.0775276368233 100.0
    vertex 803.896046730095 1193.0769548828648 100.0
  endloop
endfacet
facet normal -0.0 -0.0 1.0
  outer loop
    vertex 803.896046730095 1193.0769548828648 100.0
    vertex 806.3414832127258 1183.0775276368233 100.0
    vertex 809.591483212725 1188.7066927614226 100.0
  endloop
endfacet
facet normal -0.0 -0.0 1.0
  outer loop
    vertex 809.591483212725 1188.7066927614226 100.0
    vertex 806.3414832127258 1183.0775276368233 100.0
    vertex 814.5416356792401 1179.6809132716662 100.0
  endloop
endfacet
facet normal -0.0 -0.0 1.0
  outer loop
    vertex 809.591483212725 1188.7066927614226 100.0
    vertex 814.5416356792401 1179.6809132716662 100.0
    vertex 816.2239594724058 1185.9594311425453 100.0
  endloop
endfacet
facet normal -0.0 -0.0 1.0
  outer loop
    vertex 816.2239594724058 1185.9594311425453 100.0
    vertex 814.5416356792401 1179.6809132716662 100.0
    vertex 823.3414832127258 1178.5223913654945 100.0
  endloop
endfacet
facet normal -0.0 -0.0 1.0
  outer loop
    vertex 816.2239594724058 1185.9594311425453 100.0
    vertex 823.3414832127258 1178.5223913654945 100.0
    vertex 823.3414832127255 1185.0223913654947 100.0
  endloop
endfacet
facet normal -0.0 -0.0 1.0
  outer loop
    vertex 823.3414832127255 1185.0223913654947 100.0
    vertex 823.3414832127258 1178.5223913654945 100.0
    vertex 830.4590069530446 1185.9594311425453 100.0
  endloop
endfacet
facet normal -0.0 -0.0 1.0
  outer loop
    vertex 830.4590069530446 1185.9594311425453 100.0
    vertex 823.3414832127258 1178.5223913654945 100.0
    vertex 832.1413307462116 1179.6809132716664 100.0
  endloop
endfacet
facet normal -0.0 -0.0 1.0
  outer loop
    vertex 830.4590069530446 1185.9594311425453 100.0
    vertex 832.1413307462116 1179.6809132716664 100.0
    vertex 837.0914832127253 1188.7066927614226 100.0
  endloop
endfacet
facet normal -0.0 -0.0 1.0
  outer loop
    vertex 837.0914832127253 1188.7066927614226 100.0
    vertex 832.1413307462116 1179.6809132716664 100.0
    vertex 840.3414832127258 1183.0775276368238 100.0
  endloop
endfacet
facet normal -0.0 -0.0 1.0
  outer loop
    vertex 837.0914832127253 1188.7066927614226 100.0
    vertex 840.3414832127258 1183.0775276368238 100.0
    vertex 842.7869196953553 1193.0769548828648 100.0
  endloop
endfacet
facet normal -0.0 -0.0 1.0
  outer loop
    vertex 842.7869196953553 1193.0769548828648 100.0
    vertex 840.3414832127258 1183.0775276368238 100.0
    vertex 847.3831137730685 1188.4807608051522 100.0
  endloop
endfacet
facet normal -0.0 -0.0 1.0
  outer loop
    vertex 842.7869196953553 1193.0769548828648 100.0
    vertex 847.3831137730685 1188.4807608051522 100.0
    vertex 847.1571818167971 1198.772391365495 100.0
  endloop
endfacet
facet normal -0.0 -0.0 1.0
  outer loop
    vertex 847.1571818167971 1198.772391365495 100.0
    vertex 847.3831137730685 1188.4807608051522 100.0
    vertex 849.9044434356745 1205.4048676251753 100.0
  endloop
endfacet
facet normal -0.0 -0.0 1.0
  outer loop
    vertex 849.9044434356745 1205.4048676251753 100.0
    vertex 847.3831137730685 1188.4807608051522 100.0
    vertex 852.7863469413967 1195.522391365495 100.0
  endloop
endfacet
facet normal -0.0 -0.0 1.0
  outer loop
    vertex 849.9044434356745 1205.4048676251753 100.0
    vertex 852.7863469413967 1195.522391365495 100.0
    vertex 850.841483212725 1212.5223913654947 100.0
  endloop
endfacet
facet normal -0.0 -0.0 1.0
  outer loop
    vertex 850.841483212725 1212.5223913654947 100.0
    vertex 852.7863469413967 1195.522391365495 100.0
    vertex 852.7863469413963 1229.522391365495 100.0
  endloop
endfacet
facet normal -0.0 -0.0 1.0
  outer loop
    vertex 852.7863469413963 1229.522391365495 100.0
    vertex 852.7863469413967 1195.522391365495 100.0
    vertex 856.1829613065537 1221.3222388989807 100.0
  endloop
endfacet
facet normal -0.0 -0.0 1.0
  outer loop
    vertex 856.1829613065537 1221.3222388989807 100.0
    vertex 852.7863469413967 1195.522391365495 100.0
    vertex 856.1829613065539 1203.7225438320093 100.0
  endloop
endfacet
facet normal -0.0 -0.0 1.0
  outer loop
    vertex 856.1829613065537 1221.3222388989807 100.0
    vertex 856.1829613065539 1203.7225438320093 100.0
    vertex 857.3414832127256 1212.522391365495 100.0
  endloop
endfacet
facet normal -0.0 -0.0 1.0
  outer loop
    vertex 790.5000051188972 1203.7225438320086 100.0
    vertex 790.5000051188971 1221.32223889898 100.0
    vertex 789.3414832127255 1212.5223913654943 100.0
  endloop
endfacet
facet normal -0.0 -0.0 1.0
  outer loop
    vertex 790.5000051188971 1221.32223889898 100.0
    vertex 790.5000051188972 1203.7225438320086 100.0
    vertex 793.8966194840544 1229.5223913654943 100.0
  endloop
endfacet
facet normal -0.0 -0.0 1.0
  outer loop
    vertex 793.8966194840544 1229.5223913654943 100.0
    vertex 790.5000051188972 1203.7225438320086 100.0
    vertex 793.8966194840548 1195.5223913654943 100.0
  endloop
endfacet
facet normal -0.0 -0.0 1.0
  outer loop
    vertex 793.8966194840544 1229.5223913654943 100.0
    vertex 793.8966194840548 1195.5223913654943 100.0
    vertex 795.8414832127252 1212.5223913654947 100.0
  endloop
endfacet
facet normal -0.0 -0.0 1.0
  outer loop
    vertex 793.8966194840544 1229.5223913654943 100.0
    vertex 795.8414832127252 1212.5223913654947 100.0
    vertex 796.7785229897756 1219.6399151058142 100.0
  endloop
endfacet
facet normal -0.0 -0.0 1.0
  outer loop
    vertex 793.8966194840544 1229.5223913654943 100.0
    vertex 796.7785229897756 1219.6399151058142 100.0
    vertex 799.2998526523827 1236.564021925837 100.0
  endloop
endfacet
facet normal -0.0 -0.0 1.0
  outer loop
    vertex 799.2998526523827 1236.564021925837 100.0
    vertex 796.7785229897756 1219.6399151058142 100.0
    vertex 799.525784608653 1226.2723913654945 100.0
  endloop
endfacet
facet normal -0.0 -0.0 1.0
  outer loop
    vertex 799.2998526523827 1236.564021925837 100.0
    vertex 799.525784608653 1226.2723913654945 100.0
    vertex 806.3414832127253 1241.9672550941655 100.0
  endloop
endfacet
facet normal -0.0 -0.0 1.0
  outer loop
    vertex 806.3414832127253 1241.9672550941655 100.0
    vertex 799.525784608653 1226.2723913654945 100.0
    vertex 803.8960467300949 1231.9678278481242 100.0
  endloop
endfacet
facet normal -0.0 -0.0 1.0
  outer loop
    vertex 806.3414832127253 1241.9672550941655 100.0
    vertex 803.8960467300949 1231.9678278481242 100.0
    vertex 809.591483212725 1236.3380899695667 100.0
  endloop
endfacet
facet normal -0.0 -0.0 1.0
  outer loop
    vertex 806.3414832127253 1241.9672550941655 100.0
    vertex 809.591483212725 1236.3380899695667 100.0
    vertex 814.5416356792396 1245.3638694593228 100.0
  endloop
endfacet
facet normal -0.0 -0.0 1.0
  outer loop
    vertex 814.5416356792396 1245.3638694593228 100.0
    vertex 809.591483212725 1236.3380899695667 100.0
    vertex 816.2239594724056 1239.0853515884435 100.0
  endloop
endfacet
facet normal -0.0 -0.0 1.0
  outer loop
    vertex 814.5416356792396 1245.3638694593228 100.0
    vertex 816.2239594724056 1239.0853515884435 100.0
    vertex 823.3414832127252 1246.5223913654947 100.0
  endloop
endfacet
facet normal -0.0 -0.0 1.0
  outer loop
    vertex 823.3414832127252 1246.5223913654947 100.0
    vertex 816.2239594724056 1239.0853515884435 100.0
    vertex 823.3414832127255 1240.022391365494 100.0
  endloop
endfacet
facet normal -0.0 -0.0 1.0
  outer loop
    vertex 823.3414832127252 1246.5223913654947 100.0
    vertex 823.3414832127255 1240.022391365494 100.0
    vertex 832.141330746211 1245.363869459323 100.0
  endloop
endfacet
facet normal -0.0 -0.0 1.0
  outer loop
    vertex 832.141330746211 1245.363869459323 100.0
    vertex 823.3414832127255 1240.022391365494 100.0
    vertex 830.4590069530446 1239.0853515884435 100.0
  endloop
endfacet
facet normal -0.0 -0.0 1.0
  outer loop
    vertex 832.141330746211 1245.363869459323 100.0
    vertex 830.4590069530446 1239.0853515884435 100.0
    vertex 837.0914832127249 1236.3380899695667 100.0
  endloop
endfacet
facet normal -0.0 -0.0 1.0
  outer loop
    vertex 832.141330746211 1245.363869459323 100.0
    vertex 837.0914832127249 1236.3380899695667 100.0
    vertex 840.3414832127253 1241.967255094166 100.0
  endloop
endfacet
facet normal -0.0 -0.0 1.0
  outer loop
    vertex 840.3414832127253 1241.967255094166 100.0
    vertex 837.0914832127249 1236.3380899695667 100.0
    vertex 842.786919695355 1231.9678278481242 100.0
  endloop
endfacet
facet normal -0.0 -0.0 1.0
  outer loop
    vertex 840.3414832127253 1241.967255094166 100.0
    vertex 842.786919695355 1231.9678278481242 100.0
    vertex 847.383113773068 1236.5640219258376 100.0
  endloop
endfacet
facet normal -0.0 -0.0 1.0
  outer loop
    vertex 847.383113773068 1236.5640219258376 100.0
    vertex 842.786919695355 1231.9678278481242 100.0
    vertex 847.1571818167971 1226.2723913654945 100.0
  endloop
endfacet
facet normal -0.0 -0.0 1.0
  outer loop
    vertex 847.383113773068 1236.5640219258376 100.0
    vertex 847.1571818167971 1226.2723913654945 100.0
    vertex 849.9044434356745 1219.6399151058142 100.0
  endloop
endfacet
facet normal -0.0 -0.0 1.0
  outer loop
    vertex 847.383113773068 1236.5640219258376 100.0
    vertex 849.9044434356745 1219.6399151058142 100.0
    vertex 852.7863469413963 1229.522391365495 100.0
  endloop
endfacet
facet normal -0.0 -0.0 1.0
  outer loop
    vertex 852.7863469413963 1229.522391365495 100.0
    vertex 849.9044434356745 1219.6399151058142 100.0
    vertex 850.841483212725 1212.5223913654947 100.0
  endloop
endfacet
facet normal 0.0 0.0 -1.0
  outer loop
    vertex 790.5000051188971 1221.32223889898 -2.255973186038318e-14
    vertex 790.5000051188972 1203.7225438320086 -2.255973186038318e-14
    vertex 789.3414832127255 1212.5223913654943 -2.255973186038318e-14
  endloop
endfacet
facet normal 0.0 0.0 -1.0
  outer loop
    vertex 790.5000051188972 1203.7225438320086 -2.255973186038318e-14
    vertex 790.5000051188971 1221.32223889898 -2.255973186038318e-14
    vertex 793.8966194840544 1229.5223913654943 -2.255973186038318e-14
  endloop
endfacet
facet normal 0.0 0.0 -1.0
  outer loop
    vertex 790.5000051188972 1203.7225438320086 -2.255973186038318e-14
    vertex 793.8966194840544 1229.5223913654943 -2.255973186038318e-14
    vertex 793.8966194840548 1195.5223913654943 -2.255973186038318e-14
  endloop
endfacet
facet normal 0.0 0.0 -1.0
  outer loop
    vertex 793.8966194840548 1195.5223913654943 -2.255973186038318e-14
    vertex 793.8966194840544 1229.5223913654943 -2.255973186038318e-14
    vertex 799.2998526523827 1236.564021925837 -2.255973186038318e-14
  endloop
endfacet
facet normal 0.0 0.0 -1.0
  outer loop
    vertex 793.8966194840548 1195.5223913654943 -2.255973186038318e-14
    vertex 799.2998526523827 1236.564021925837 -2.255973186038318e-14
    vertex 799.2998526523832 1188.4807608051517 -2.255973186038318e-14
  endloop
endfacet
facet normal 0.0 0.0 -1.0
  outer loop
    vertex 799.2998526523832 1188.4807608051517 -2.255973186038318e-14
    vertex 799.2998526523827 1236.564021925837 -2.255973186038318e-14
    vertex 806.3414832127253 1241.9672550941655 -2.255973186038318e-14
  endloop
endfacet
facet normal 0.0 0.0 -1.0
  outer loop
    vertex 799.2998526523832 1188.4807608051517 -2.255973186038318e-14
    vertex 806.3414832127253 1241.9672550941655 -2.255973186038318e-14
    vertex 806.3414832127258 1183.0775276368233 -2.255973186038318e-14
  endloop
endfacet
facet normal 0.0 0.0 -1.0
  outer loop
    vertex 806.3414832127258 1183.0775276368233 -2.255973186038318e-14
    vertex 806.3414832127253 1241.9672550941655 -2.255973186038318e-14
    vertex 814.5416356792396 1245.3638694593228 -2.255973186038318e-14
  endloop
endfacet
facet normal 0.0 0.0 -1.0
  outer loop
    vertex 806.3414832127258 1183.0775276368233 -2.255973186038318e-14
    vertex 814.5416356792396 1245.3638694593228 -2.255973186038318e-14
    vertex 814.5416356792401 1179.6809132716662 -2.255973186038318e-14
  endloop
endfacet
facet normal 0.0 0.0 -1.0
  outer loop
    vertex 814.5416356792401 1179.6809132716662 -2.255973186038318e-14
    vertex 814.5416356792396 1245.3638694593228 -2.255973186038318e-14
    vertex 817.3414832127255 1212.5223913654947 1.001853349630685e-29
  endloop
endfacet
facet normal 0.0 0.0 -1.0
  outer loop
    vertex 817.3414832127255 1212.5223913654947 1.001853349630685e-29
    vertex 814.5416356792396 1245.3638694593228 -2.255973186038318e-14
    vertex 817.5459282549908 1214.0753056361098 1.001853349630685e-29
  endloop
endfacet
facet normal 0.0 0.0 -1.0
  outer loop
    vertex 817.5459282549908 1214.0753056361098 1.001853349630685e-29
    vertex 814.5416356792396 1245.3638694593228 -2.255973186038318e-14
    vertex 823.3414832127252 1246.5223913654947 -2.255973186038318e-14
  endloop
endfacet
facet normal 0.0 0.0 -1.0
  outer loop
    vertex 817.5459282549908 1214.0753056361098 1.001853349630685e-29
    vertex 823.3414832127252 1246.5223913654947 -2.255973186038318e-14
    vertex 818.1453307900189 1215.5223913654947 1.001853349630685e-29
  endloop
endfacet
facet normal 0.0 0.0 -1.0
  outer loop
    vertex 818.1453307900189 1215.5223913654947 1.001853349630685e-29
    vertex 823.3414832127252 1246.5223913654947 -2.255973186038318e-14
    vertex 819.098842525606 1216.7650320526138 1.001853349630685e-29
  endloop
endfacet
facet normal 0.0 0.0 -1.0
  outer loop
    vertex 819.098842525606 1216.7650320526138 1.001853349630685e-29
    vertex 823.3414832127252 1246.5223913654947 -2.255973186038318e-14
    vertex 820.3414832127255 1217.718543788201 1.001853349630685e-29
  endloop
endfacet
facet normal 0.0 0.0 -1.0
  outer loop
    vertex 820.3414832127255 1217.718543788201 1.001853349630685e-29
    vertex 823.3414832127252 1246.5223913654947 -2.255973186038318e-14
    vertex 821.7885689421104 1218.3179463232289 1.001853349630685e-29
  endloop
endfacet
facet normal 0.0 0.0 -1.0
  outer loop
    vertex 821.7885689421104 1218.3179463232289 1.001853349630685e-29
    vertex 823.3414832127252 1246.5223913654947 -2.255973186038318e-14
    vertex 823.3414832127252 1218.522391365495 1.001853349630685e-29
  endloop
endfacet
facet normal 0.0 0.0 -1.0
  outer loop
    vertex 823.3414832127252 1218.522391365495 1.001853349630685e-29
    vertex 823.3414832127252 1246.5223913654947 -2.255973186038318e-14
    vertex 832.141330746211 1245.363869459323 -2.255973186038318e-14
  endloop
endfacet
facet normal 0.0 0.0 -1.0
  outer loop
    vertex 823.3414832127252 1218.522391365495 1.001853349630685e-29
    vertex 832.141330746211 1245.363869459323 -2.255973186038318e-14
    vertex 824.8943974833404 1218.3179463232289 1.001853349630685e-29
  endloop
endfacet
facet normal 0.0 0.0 -1.0
  outer loop
    vertex 824.8943974833404 1218.3179463232289 1.001853349630685e-29
    vertex 832.141330746211 1245.363869459323 -2.255973186038318e-14
    vertex 826.3414832127252 1217.718543788201 1.001853349630685e-29
  endloop
endfacet
facet normal 0.0 0.0 -1.0
  outer loop
    vertex 826.3414832127252 1217.718543788201 1.001853349630685e-29
    vertex 832.141330746211 1245.363869459323 -2.255973186038318e-14
    vertex 827.5841238998447 1216.7650320526138 1.001853349630685e-29
  endloop
endfacet
facet normal 0.0 0.0 -1.0
  outer loop
    vertex 827.5841238998447 1216.7650320526138 1.001853349630685e-29
    vertex 832.141330746211 1245.363869459323 -2.255973186038318e-14
    vertex 828.5376356354319 1215.5223913654947 1.001853349630685e-29
  endloop
endfacet
facet normal 0.0 0.0 -1.0
  outer loop
    vertex 828.5376356354319 1215.5223913654947 1.001853349630685e-29
    vertex 832.141330746211 1245.363869459323 -2.255973186038318e-14
    vertex 829.1370381704596 1214.0753056361098 1.001853349630685e-29
  endloop
endfacet
facet normal 0.0 0.0 -1.0
  outer loop
    vertex 829.1370381704596 1214.0753056361098 1.001853349630685e-29
    vertex 832.141330746211 1245.363869459323 -2.255973186038318e-14
    vertex 829.3414832127253 1212.5223913654947 1.001853349630685e-29
  endloop
endfacet
facet normal 0.0 0.0 -1.0
  outer loop
    vertex 814.5416356792401 1179.6809132716662 -2.255973186038318e-14
    vertex 817.5459282549912 1210.9694770948795 1.001853349630685e-29
    vertex 823.3414832127258 1178.5223913654945 -2.255973186038318e-14
  endloop
endfacet
facet normal 0.0 0.0 -1.0
  outer loop
    vertex 817.5459282549912 1210.9694770948795 1.001853349630685e-29
    vertex 814.5416356792401 1179.6809132716662 -2.255973186038318e-14
    vertex 817.3414832127255 1212.5223913654947 1.001853349630685e-29
  endloop
endfacet
facet normal 0.0 0.0 -1.0
  outer loop
    vertex 823.3414832127258 1178.5223913654945 -2.255973186038318e-14
    vertex 817.5459282549912 1210.9694770948795 1.001853349630685e-29
    vertex 818.1453307900189 1209.5223913654945 1.001853349630685e-29
  endloop
endfacet
facet normal 0.0 0.0 -1.0
  outer loop
    vertex 823.3414832127258 1178.5223913654945 -2.255973186038318e-14
    vertex 818.1453307900189 1209.5223913654945 1.001853349630685e-29
    vertex 819.0988425256063 1208.2797506783754 1.001853349630685e-29
  endloop
endfacet
facet normal 0.0 0.0 -1.0
  outer loop
    vertex 823.3414832127258 1178.5223913654945 -2.255973186038318e-14
    vertex 819.0988425256063 1208.2797506783754 1.001853349630685e-29
    vertex 820.3414832127255 1207.326238942788 1.001853349630685e-29
  endloop
endfacet
facet normal 0.0 0.0 -1.0
  outer loop
    vertex 823.3414832127258 1178.5223913654945 -2.255973186038318e-14
    vertex 820.3414832127255 1207.326238942788 1.001853349630685e-29
    vertex 821.7885689421104 1206.7268364077602 1.001853349630685e-29
  endloop
endfacet
facet normal 0.0 0.0 -1.0
  outer loop
    vertex 823.3414832127258 1178.5223913654945 -2.255973186038318e-14
    vertex 821.7885689421104 1206.7268364077602 1.001853349630685e-29
    vertex 823.3414832127255 1206.5223913654945 1.001853349630685e-29
  endloop
endfacet
facet normal 0.0 0.0 -1.0
  outer loop
    vertex 823.3414832127258 1178.5223913654945 -2.255973186038318e-14
    vertex 823.3414832127255 1206.5223913654945 1.001853349630685e-29
    vertex 824.8943974833408 1206.7268364077602 1.001853349630685e-29
  endloop
endfacet
facet normal 0.0 0.0 -1.0
  outer loop
    vertex 823.3414832127258 1178.5223913654945 -2.255973186038318e-14
    vertex 824.8943974833408 1206.7268364077602 1.001853349630685e-29
    vertex 832.1413307462116 1179.6809132716664 -2.255973186038318e-14
  endloop
endfacet
facet normal 0.0 0.0 -1.0
  outer loop
    vertex 832.1413307462116 1179.6809132716664 -2.255973186038318e-14
    vertex 824.8943974833408 1206.7268364077602 1.001853349630685e-29
    vertex 826.3414832127256 1207.326238942788 1.001853349630685e-29
  endloop
endfacet
facet normal 0.0 0.0 -1.0
  outer loop
    vertex 832.1413307462116 1179.6809132716664 -2.255973186038318e-14
    vertex 826.3414832127256 1207.326238942788 1.001853349630685e-29
    vertex 827.5841238998447 1208.2797506783754 1.001853349630685e-29
  endloop
endfacet
facet normal 0.0 0.0 -1.0
  outer loop
    vertex 832.1413307462116 1179.6809132716664 -2.255973186038318e-14
    vertex 827.5841238998447 1208.2797506783754 1.001853349630685e-29
    vertex 828.5376356354323 1209.5223913654945 1.001853349630685e-29
  endloop
endfacet
facet normal 0.0 0.0 -1.0
  outer loop
    vertex 832.1413307462116 1179.6809132716664 -2.255973186038318e-14
    vertex 828.5376356354323 1209.5223913654945 1.001853349630685e-29
    vertex 829.13703817046 1210.9694770948795 1.001853349630685e-29
  endloop
endfacet
facet normal 0.0 0.0 -1.0
  outer loop
    vertex 832.1413307462116 1179.6809132716664 -2.255973186038318e-14
    vertex 829.13703817046 1210.9694770948795 1.001853349630685e-29
    vertex 829.3414832127253 1212.5223913654947 1.001853349630685e-29
  endloop
endfacet
facet normal 0.0 0.0 -1.0
  outer loop
    vertex 832.1413307462116 1179.6809132716664 -2.255973186038318e-14
    vertex 829.3414832127253 1212.5223913654947 1.001853349630685e-29
    vertex 832.141330746211 1245.363869459323 -2.255973186038318e-14
  endloop
endfacet
facet normal 0.0 0.0 -1.0
  outer loop
    vertex 832.1413307462116 1179.6809132716664 -2.255973186038318e-14
    vertex 832.141330746211 1245.363869459323 -2.255973186038318e-14
    vertex 840.3414832127253 1241.967255094166 -2.255973186038318e-14
  endloop
endfacet
facet normal 0.0 0.0 -1.0
  outer loop
    vertex 832.1413307462116 1179.6809132716664 -2.255973186038318e-14
    vertex 840.3414832127253 1241.967255094166 -2.255973186038318e-14
    vertex 840.3414832127258 1183.0775276368238 -2.255973186038318e-14
  endloop
endfacet
facet normal 0.0 0.0 -1.0
  outer loop
    vertex 840.3414832127258 1183.0775276368238 -2.255973186038318e-14
    vertex 840.3414832127253 1241.967255094166 -2.255973186038318e-14
    vertex 847.383113773068 1236.5640219258376 -2.255973186038318e-14
  endloop
endfacet
facet normal 0.0 0.0 -1.0
  outer loop
    vertex 840.3414832127258 1183.0775276368238 -2.255973186038318e-14
    vertex 847.383113773068 1236.5640219258376 -2.255973186038318e-14
    vertex 847.3831137730685 1188.4807608051522 -2.255973186038318e-14
  endloop
endfacet
facet normal 0.0 0.0 -1.0
  outer loop
    vertex 847.3831137730685 1188.4807608051522 -2.255973186038318e-14
    vertex 847.383113773068 1236.5640219258376 -2.255973186038318e-14
    vertex 852.7863469413963 1229.522391365495 -2.255973186038318e-14
  endloop
endfacet
facet normal 0.0 0.0 -1.0
  outer loop
    vertex 847.3831137730685 1188.4807608051522 -2.255973186038318e-14
    vertex 852.7863469413963 1229.522391365495 -2.255973186038318e-14
    vertex 852.7863469413967 1195.522391365495 -2.255973186038318e-14
  endloop
endfacet
facet normal 0.0 0.0 -1.0
  outer loop
    vertex 852.7863469413967 1195.522391365495 -2.255973186038318e-14
    vertex 852.7863469413963 1229.522391365495 -2.255973186038318e-14
    vertex 856.1829613065537 1221.3222388989807 -2.255973186038318e-14
  endloop
endfacet
facet normal 0.0 0.0 -1.0
  outer loop
    vertex 852.7863469413967 1195.522391365495 -2.255973186038318e-14
    vertex 856.1829613065537 1221.3222388989807 -2.255973186038318e-14
    vertex 856.1829613065539 1203.7225438320093 -2.255973186038318e-14
  endloop
endfacet
facet normal 0.0 0.0 -1.0
  outer loop
    vertex 856.1829613065539 1203.7225438320093 -2.255973186038318e-14
    vertex 856.1829613065537 1221.3222388989807 -2.255973186038318e-14
    vertex 857.3414832127256 1212.522391365495 -2.255973186038318e-14
  endloop
endfacet
facet normal 0.7933533402912303 0.6087614290087272 0.0
  outer loop
    vertex 847.383113773068 1236.5640219258376 -2.255973186038318e-14
    vertex 852.7863469413963 1229.522391365495 100.0
    vertex 852.7863469413963 1229.522391365495 -2.255973186038318e-14
  endloop
endfacet
facet normal 0.7933533402912303 0.6087614290087272 0.0
  outer loop
    vertex 852.7863469413963 1229.522391365495 100.0
    vertex 847.383113773068 1236.5640219258376 -2.255973186038318e-14
    vertex 847.383113773068 1236.5640219258376 100.0
  endloop
endfacet
facet normal 0.3826834323650684 0.9238795325112957 0.0
  outer loop
    vertex 832.141330746211 1245.363869459323 100.0
    vertex 840.3414832127253 1241.967255094166 -2.255973186038318e-14
    vertex 832.141330746211 1245.363869459323 -2.255973186038318e-14
  endloop
endfacet
facet normal 0.3826834323650684 0.9238795325112957 0.0
  outer loop
    vertex 840.3414832127253 1241.967255094166 -2.255973186038318e-14
    vertex 832.141330746211 1245.363869459323 100.0
    vertex 840.3414832127253 1241.967255094166 100.0
  endloop
endfacet
facet normal 0.13052619222004666 0.991444861373811 0.0
  outer loop
    vertex 823.3414832127252 1246.5223913654947 100.0
    vertex 832.141330746211 1245.363869459323 -2.255973186038318e-14
    vertex 823.3414832127252 1246.5223913654947 -2.255973186038318e-14
  endloop
endfacet
facet normal 0.13052619222004666 0.991444861373811 0.0
  outer loop
    vertex 832.141330746211 1245.363869459323 -2.255973186038318e-14
    vertex 823.3414832127252 1246.5223913654947 100.0
    vertex 832.141330746211 1245.363869459323 100.0
  endloop
endfacet
facet normal -0.13052619222006928 0.9914448613738082 0.0
  outer loop
    vertex 814.5416356792396 1245.3638694593228 100.0
    vertex 823.3414832127252 1246.5223913654947 -2.255973186038318e-14
    vertex 814.5416356792396 1245.3638694593228 -2.255973186038318e-14
  endloop
endfacet
facet normal -0.13052619222006928 0.9914448613738082 0.0
  outer loop
    vertex 823.3414832127252 1246.5223913654947 -2.255973186038318e-14
    vertex 814.5416356792396 1245.3638694593228 100.0
    vertex 823.3414832127252 1246.5223913654947 100.0
  endloop
endfacet
facet normal 0.6087614290087144 0.7933533402912402 0.0
  outer loop
    vertex 840.3414832127253 1241.967255094166 100.0
    vertex 847.383113773068 1236.5640219258376 -2.255973186038318e-14
    vertex 840.3414832127253 1241.967255094166 -2.255973186038318e-14
  endloop
endfacet
facet normal 0.6087614290087144 0.7933533402912402 0.0
  outer loop
    vertex 847.383113773068 1236.5640219258376 -2.255973186038318e-14
    vertex 840.3414832127253 1241.967255094166 100.0
    vertex 847.383113773068 1236.5640219258376 100.0
  endloop
endfacet
facet normal -0.38268343236508573 0.9238795325112884 0.0
  outer loop
    vertex 806.3414832127253 1241.9672550941655 100.0
    vertex 814.5416356792396 1245.3638694593228 -2.255973186038318e-14
    vertex 806.3414832127253 1241.9672550941655 -2.255973186038318e-14
  endloop
endfacet
facet normal -0.38268343236508573 0.9238795325112884 0.0
  outer loop
    vertex 814.5416356792396 1245.3638694593228 -2.255973186038318e-14
    vertex 806.3414832127253 1241.9672550941655 100.0
    vertex 814.5416356792396 1245.3638694593228 100.0
  endloop
endfacet
facet normal -0.6087614290087321 0.7933533402912265 0.0
  outer loop
    vertex 799.2998526523827 1236.564021925837 100.0
    vertex 806.3414832127253 1241.9672550941655 -2.255973186038318e-14
    vertex 799.2998526523827 1236.564021925837 -2.255973186038318e-14
  endloop
endfacet
facet normal -0.6087614290087321 0.7933533402912265 0.0
  outer loop
    vertex 806.3414832127253 1241.9672550941655 -2.255973186038318e-14
    vertex 799.2998526523827 1236.564021925837 100.0
    vertex 806.3414832127253 1241.9672550941655 100.0
  endloop
endfacet
facet normal -0.9238795325112884 0.38268343236508573 0.0
  outer loop
    vertex 793.8966194840544 1229.5223913654943 100.0
    vertex 790.5000051188971 1221.32223889898 -2.255973186038318e-14
    vertex 790.5000051188971 1221.32223889898 100.0
  endloop
endfacet
facet normal -0.9238795325112884 0.38268343236508573 0.0
  outer loop
    vertex 790.5000051188971 1221.32223889898 -2.255973186038318e-14
    vertex 793.8966194840544 1229.5223913654943 100.0
    vertex 793.8966194840544 1229.5223913654943 -2.255973186038318e-14
  endloop
endfacet
facet normal -0.6087614290087144 -0.7933533402912402 -0.0
  outer loop
    vertex 806.3414832127258 1183.0775276368233 100.0
    vertex 799.2998526523832 1188.4807608051517 -2.255973186038318e-14
    vertex 806.3414832127258 1183.0775276368233 -2.255973186038318e-14
  endloop
endfacet
facet normal -0.6087614290087144 -0.7933533402912402 -0.0
  outer loop
    vertex 799.2998526523832 1188.4807608051517 -2.255973186038318e-14
    vertex 806.3414832127258 1183.0775276368233 100.0
    vertex 799.2998526523832 1188.4807608051517 100.0
  endloop
endfacet
facet normal 0.38268343236508573 -0.9238795325112884 0.0
  outer loop
    vertex 840.3414832127258 1183.0775276368238 100.0
    vertex 832.1413307462116 1179.6809132716664 -2.255973186038318e-14
    vertex 840.3414832127258 1183.0775276368238 -2.255973186038318e-14
  endloop
endfacet
facet normal 0.38268343236508573 -0.9238795325112884 0.0
  outer loop
    vertex 832.1413307462116 1179.6809132716664 -2.255973186038318e-14
    vertex 840.3414832127258 1183.0775276368238 100.0
    vertex 832.1413307462116 1179.6809132716664 100.0
  endloop
endfacet
facet normal 0.991444861373811 -0.13052619222004666 0.0
  outer loop
    vertex 857.3414832127256 1212.522391365495 -2.255973186038318e-14
    vertex 856.1829613065539 1203.7225438320093 100.0
    vertex 856.1829613065539 1203.7225438320093 -2.255973186038318e-14
  endloop
endfacet
facet normal 0.991444861373811 -0.13052619222004666 0.0
  outer loop
    vertex 856.1829613065539 1203.7225438320093 100.0
    vertex 857.3414832127256 1212.522391365495 -2.255973186038318e-14
    vertex 857.3414832127256 1212.522391365495 100.0
  endloop
endfacet
facet normal 0.7933533402912402 -0.6087614290087144 0.0
  outer loop
    vertex 852.7863469413967 1195.522391365495 -2.255973186038318e-14
    vertex 847.3831137730685 1188.4807608051522 100.0
    vertex 847.3831137730685 1188.4807608051522 -2.255973186038318e-14
  endloop
endfacet
facet normal 0.7933533402912402 -0.6087614290087144 0.0
  outer loop
    vertex 847.3831137730685 1188.4807608051522 100.0
    vertex 852.7863469413967 1195.522391365495 -2.255973186038318e-14
    vertex 852.7863469413967 1195.522391365495 100.0
  endloop
endfacet
facet normal -0.9914448613738125 0.1305261922200367 0.0
  outer loop
    vertex 790.5000051188971 1221.32223889898 100.0
    vertex 789.3414832127255 1212.5223913654943 -2.255973186038318e-14
    vertex 789.3414832127255 1212.5223913654943 100.0
  endloop
endfacet
facet normal -0.9914448613738125 0.1305261922200367 0.0
  outer loop
    vertex 789.3414832127255 1212.5223913654943 -2.255973186038318e-14
    vertex 790.5000051188971 1221.32223889898 100.0
    vertex 790.5000051188971 1221.32223889898 -2.255973186038318e-14
  endloop
endfacet
facet normal -0.7933533402912353 -0.6087614290087208 -0.0
  outer loop
    vertex 793.8966194840548 1195.5223913654943 100.0
    vertex 799.2998526523832 1188.4807608051517 -2.255973186038318e-14
    vertex 799.2998526523832 1188.4807608051517 100.0
  endloop
endfacet
facet normal -0.7933533402912353 -0.6087614290087208 -0.0
  outer loop
    vertex 799.2998526523832 1188.4807608051517 -2.255973186038318e-14
    vertex 793.8966194840548 1195.5223913654943 100.0
    vertex 793.8966194840548 1195.5223913654943 -2.255973186038318e-14
  endloop
endfacet
facet normal -0.3826834323650684 -0.9238795325112957 -0.0
  outer loop
    vertex 814.5416356792401 1179.6809132716662 100.0
    vertex 806.3414832127258 1183.0775276368233 -2.255973186038318e-14
    vertex 814.5416356792401 1179.6809132716662 -2.255973186038318e-14
  endloop
endfacet
facet normal -0.3826834323650684 -0.9238795325112957 -0.0
  outer loop
    vertex 806.3414832127258 1183.0775276368233 -2.255973186038318e-14
    vertex 814.5416356792401 1179.6809132716662 100.0
    vertex 806.3414832127258 1183.0775276368233 100.0
  endloop
endfacet
facet normal -0.13052619222004666 -0.991444861373811 -0.0
  outer loop
    vertex 823.3414832127258 1178.5223913654945 100.0
    vertex 814.5416356792401 1179.6809132716662 -2.255973186038318e-14
    vertex 823.3414832127258 1178.5223913654945 -2.255973186038318e-14
  endloop
endfacet
facet normal -0.13052619222004666 -0.991444861373811 -0.0
  outer loop
    vertex 814.5416356792401 1179.6809132716662 -2.255973186038318e-14
    vertex 823.3414832127258 1178.5223913654945 100.0
    vertex 814.5416356792401 1179.6809132716662 100.0
  endloop
endfacet
facet normal 0.6087614290087272 -0.7933533402912303 0.0
  outer loop
    vertex 847.3831137730685 1188.4807608051522 100.0
    vertex 840.3414832127258 1183.0775276368238 -2.255973186038318e-14
    vertex 847.3831137730685 1188.4807608051522 -2.255973186038318e-14
  endloop
endfacet
facet normal 0.6087614290087272 -0.7933533402912303 0.0
  outer loop
    vertex 840.3414832127258 1183.0775276368238 -2.255973186038318e-14
    vertex 847.3831137730685 1188.4807608051522 100.0
    vertex 840.3414832127258 1183.0775276368238 100.0
  endloop
endfacet
facet normal -0.9914448613738095 -0.13052619222005932 -0.0
  outer loop
    vertex 789.3414832127255 1212.5223913654943 100.0
    vertex 790.5000051188972 1203.7225438320086 -2.255973186038318e-14
    vertex 790.5000051188972 1203.7225438320086 100.0
  endloop
endfacet
facet normal -0.9914448613738095 -0.13052619222005932 -0.0
  outer loop
    vertex 790.5000051188972 1203.7225438320086 -2.255973186038318e-14
    vertex 789.3414832127255 1212.5223913654943 100.0
    vertex 789.3414832127255 1212.5223913654943 -2.255973186038318e-14
  endloop
endfacet
facet normal -0.7933533402912402 0.6087614290087144 0.0
  outer loop
    vertex 799.2998526523827 1236.564021925837 100.0
    vertex 793.8966194840544 1229.5223913654943 -2.255973186038318e-14
    vertex 793.8966194840544 1229.5223913654943 100.0
  endloop
endfacet
facet normal -0.7933533402912402 0.6087614290087144 0.0
  outer loop
    vertex 793.8966194840544 1229.5223913654943 -2.255973186038318e-14
    vertex 799.2998526523827 1236.564021925837 100.0
    vertex 799.2998526523827 1236.564021925837 -2.255973186038318e-14
  endloop
endfacet
facet normal 0.9238795325112957 -0.3826834323650684 0.0
  outer loop
    vertex 856.1829613065539 1203.7225438320093 -2.255973186038318e-14
    vertex 852.7863469413967 1195.522391365495 100.0
    vertex 852.7863469413967 1195.522391365495 -2.255973186038318e-14
  endloop
endfacet
facet normal 0.9238795325112957 -0.3826834323650684 0.0
  outer loop
    vertex 852.7863469413967 1195.522391365495 100.0
    vertex 856.1829613065539 1203.7225438320093 -2.255973186038318e-14
    vertex 856.1829613065539 1203.7225438320093 100.0
  endloop
endfacet
facet normal -0.9238795325112812 -0.3826834323651031 -0.0
  outer loop
    vertex 790.5000051188972 1203.7225438320086 100.0
    vertex 793.8966194840548 1195.5223913654943 -2.255973186038318e-14
    vertex 793.8966194840548 1195.5223913654943 100.0
  endloop
endfacet
facet normal -0.9238795325112812 -0.3826834323651031 -0.0
  outer loop
    vertex 793.8966194840548 1195.5223913654943 -2.255973186038318e-14
    vertex 790.5000051188972 1203.7225438320086 100.0
    vertex 790.5000051188972 1203.7225438320086 -2.255973186038318e-14
  endloop
endfacet
facet normal 0.13052619222006928 -0.9914448613738082 0.0
  outer loop
    vertex 832.1413307462116 1179.6809132716664 100.0
    vertex 823.3414832127258 1178.5223913654945 -2.255973186038318e-14
    vertex 832.1413307462116 1179.6809132716664 -2.255973186038318e-14
  endloop
endfacet
facet normal 0.13052619222006928 -0.9914448613738082 0.0
  outer loop
    vertex 823.3414832127258 1178.5223913654945 -2.255973186038318e-14
    vertex 832.1413307462116 1179.6809132716664 100.0
    vertex 823.3414832127258 1178.5223913654945 100.0
  endloop
endfacet
facet normal 0.9914448613738082 0.13052619222006928 0.0
  outer loop
    vertex 856.1829613065537 1221.3222388989807 -2.255973186038318e-14
    vertex 857.3414832127256 1212.522391365495 100.0
    vertex 857.3414832127256 1212.522391365495 -2.255973186038318e-14
  endloop
endfacet
facet normal 0.9914448613738082 0.13052619222006928 0.0
  outer loop
    vertex 857.3414832127256 1212.522391365495 100.0
    vertex 856.1829613065537 1221.3222388989807 -2.255973186038318e-14
    vertex 856.1829613065537 1221.3222388989807 100.0
  endloop
endfacet
facet normal 0.9238795325112884 0.38268343236508573 0.0
  outer loop
    vertex 852.7863469413963 1229.522391365495 -2.255973186038318e-14
    vertex 856.1829613065537 1221.3222388989807 100.0
    vertex 856.1829613065537 1221.3222388989807 -2.255973186038318e-14
  endloop
endfacet
facet normal 0.9238795325112884 0.38268343236508573 0.0
  outer loop
    vertex 856.1829613065537 1221.3222388989807 100.0
    vertex 852.7863469413963 1229.522391365495 -2.255973186038318e-14
    vertex 852.7863469413963 1229.522391365495 100.0
  endloop
endfacet
facet normal -0.7933533402912754 -0.6087614290086683 0.0
  outer loop
    vertex 827.5841238998447 1216.7650320526138 4.999999999999999
    vertex 828.5376356354319 1215.5223913654947 1.001853349630685e-29
    vertex 828.5376356354319 1215.5223913654947 4.999999999999999
  endloop
endfacet
facet normal -0.7933533402912754 -0.6087614290086683 0.0
  outer loop
    vertex 828.5376356354319 1215.5223913654947 1.001853349630685e-29
    vertex 827.5841238998447 1216.7650320526138 4.999999999999999
    vertex 827.5841238998447 1216.7650320526138 1.001853349630685e-29
  endloop
endfacet
facet normal -0.6087614290086296 -0.7933533402913052 0.0
  outer loop
    vertex 827.5841238998447 1216.7650320526138 4.999999999999999
    vertex 826.3414832127252 1217.718543788201 1.001853349630685e-29
    vertex 827.5841238998447 1216.7650320526138 1.001853349630685e-29
  endloop
endfacet
facet normal -0.6087614290086296 -0.7933533402913052 0.0
  outer loop
    vertex 826.3414832127252 1217.718543788201 1.001853349630685e-29
    vertex 827.5841238998447 1216.7650320526138 4.999999999999999
    vertex 826.3414832127252 1217.718543788201 4.999999999999999
  endloop
endfacet
facet normal -0.13052619222009473 0.9914448613738048 -0.0
  outer loop
    vertex 823.3414832127255 1206.5223913654945 4.999999999999999
    vertex 824.8943974833408 1206.7268364077602 1.001853349630685e-29
    vertex 823.3414832127255 1206.5223913654945 1.001853349630685e-29
  endloop
endfacet
facet normal -0.13052619222009473 0.9914448613738048 -0.0
  outer loop
    vertex 824.8943974833408 1206.7268364077602 1.001853349630685e-29
    vertex 823.3414832127255 1206.5223913654945 4.999999999999999
    vertex 824.8943974833408 1206.7268364077602 4.999999999999999
  endloop
endfacet
facet normal -0.793353340291164 0.6087614290088134 0.0
  outer loop
    vertex 828.5376356354323 1209.5223913654945 4.999999999999999
    vertex 827.5841238998447 1208.2797506783754 1.001853349630685e-29
    vertex 827.5841238998447 1208.2797506783754 4.999999999999999
  endloop
endfacet
facet normal -0.793353340291164 0.6087614290088134 0.0
  outer loop
    vertex 827.5841238998447 1208.2797506783754 1.001853349630685e-29
    vertex 828.5376356354323 1209.5223913654945 4.999999999999999
    vertex 828.5376356354323 1209.5223913654945 1.001853349630685e-29
  endloop
endfacet
facet normal -0.9914448613738347 0.13052619221986822 0.0
  outer loop
    vertex 829.3414832127253 1212.5223913654947 4.999999999999999
    vertex 829.13703817046 1210.9694770948795 1.001853349630685e-29
    vertex 829.13703817046 1210.9694770948795 4.999999999999999
  endloop
endfacet
facet normal -0.9914448613738347 0.13052619221986822 0.0
  outer loop
    vertex 829.13703817046 1210.9694770948795 1.001853349630685e-29
    vertex 829.3414832127253 1212.5223913654947 4.999999999999999
    vertex 829.3414832127253 1212.5223913654947 1.001853349630685e-29
  endloop
endfacet
facet normal -0.9238795325112966 -0.38268343236506647 0.0
  outer loop
    vertex 828.5376356354319 1215.5223913654947 4.999999999999999
    vertex 829.1370381704596 1214.0753056361098 1.001853349630685e-29
    vertex 829.1370381704596 1214.0753056361098 4.999999999999999
  endloop
endfacet
facet normal -0.9238795325112966 -0.38268343236506647 0.0
  outer loop
    vertex 829.1370381704596 1214.0753056361098 1.001853349630685e-29
    vertex 828.5376356354319 1215.5223913654947 4.999999999999999
    vertex 828.5376356354319 1215.5223913654947 1.001853349630685e-29
  endloop
endfacet
facet normal -0.38268343236506647 0.9238795325112966 -0.0
  outer loop
    vertex 824.8943974833408 1206.7268364077602 4.999999999999999
    vertex 826.3414832127256 1207.326238942788 1.001853349630685e-29
    vertex 824.8943974833408 1206.7268364077602 1.001853349630685e-29
  endloop
endfacet
facet normal -0.38268343236506647 0.9238795325112966 -0.0
  outer loop
    vertex 826.3414832127256 1207.326238942788 1.001853349630685e-29
    vertex 824.8943974833408 1206.7268364077602 4.999999999999999
    vertex 826.3414832127256 1207.326238942788 4.999999999999999
  endloop
endfacet
facet normal -0.6087614290088134 0.793353340291164 -0.0
  outer loop
    vertex 826.3414832127256 1207.326238942788 4.999999999999999
    vertex 827.5841238998447 1208.2797506783754 1.001853349630685e-29
    vertex 826.3414832127256 1207.326238942788 1.001853349630685e-29
  endloop
endfacet
facet normal -0.6087614290088134 0.793353340291164 -0.0
  outer loop
    vertex 827.5841238998447 1208.2797506783754 1.001853349630685e-29
    vertex 826.3414832127256 1207.326238942788 4.999999999999999
    vertex 827.5841238998447 1208.2797506783754 4.999999999999999
  endloop
endfacet
facet normal -0.9238795325112966 0.3826834323650664 0.0
  outer loop
    vertex 829.13703817046 1210.9694770948795 4.999999999999999
    vertex 828.5376356354323 1209.5223913654945 1.001853349630685e-29
    vertex 828.5376356354323 1209.5223913654945 4.999999999999999
  endloop
endfacet
facet normal -0.9238795325112966 0.3826834323650664 0.0
  outer loop
    vertex 828.5376356354323 1209.5223913654945 1.001853349630685e-29
    vertex 829.13703817046 1210.9694770948795 4.999999999999999
    vertex 829.13703817046 1210.9694770948795 1.001853349630685e-29
  endloop
endfacet
facet normal -0.9914448613738048 -0.13052619222009473 0.0
  outer loop
    vertex 829.1370381704596 1214.0753056361098 4.999999999999999
    vertex 829.3414832127253 1212.5223913654947 1.001853349630685e-29
    vertex 829.3414832127253 1212.5223913654947 4.999999999999999
  endloop
endfacet
facet normal -0.9914448613738048 -0.13052619222009473 0.0
  outer loop
    vertex 829.3414832127253 1212.5223913654947 1.001853349630685e-29
    vertex 829.1370381704596 1214.0753056361098 4.999999999999999
    vertex 829.1370381704596 1214.0753056361098 1.001853349630685e-29
  endloop
endfacet
facet normal 0.9238795325112966 0.38268343236506647 -0.0
  outer loop
    vertex 817.5459282549912 1210.9694770948795 1.001853349630685e-29
    vertex 818.1453307900189 1209.5223913654945 4.999999999999999
    vertex 818.1453307900189 1209.5223913654945 1.001853349630685e-29
  endloop
endfacet
facet normal 0.9238795325112966 0.38268343236506647 -0.0
  outer loop
    vertex 818.1453307900189 1209.5223913654945 4.999999999999999
    vertex 817.5459282549912 1210.9694770948795 1.001853349630685e-29
    vertex 817.5459282549912 1210.9694770948795 4.999999999999999
  endloop
endfacet
facet normal 0.6087614290088134 0.793353340291164 -0.0
  outer loop
    vertex 819.0988425256063 1208.2797506783754 4.999999999999999
    vertex 820.3414832127255 1207.326238942788 1.001853349630685e-29
    vertex 819.0988425256063 1208.2797506783754 1.001853349630685e-29
  endloop
endfacet
facet normal 0.6087614290088134 0.793353340291164 -0.0
  outer loop
    vertex 820.3414832127255 1207.326238942788 1.001853349630685e-29
    vertex 819.0988425256063 1208.2797506783754 4.999999999999999
    vertex 820.3414832127255 1207.326238942788 4.999999999999999
  endloop
endfacet
facet normal 0.38268343236506647 0.9238795325112966 -0.0
  outer loop
    vertex 820.3414832127255 1207.326238942788 4.999999999999999
    vertex 821.7885689421104 1206.7268364077602 1.001853349630685e-29
    vertex 820.3414832127255 1207.326238942788 1.001853349630685e-29
  endloop
endfacet
facet normal 0.38268343236506647 0.9238795325112966 -0.0
  outer loop
    vertex 821.7885689421104 1206.7268364077602 1.001853349630685e-29
    vertex 820.3414832127255 1207.326238942788 4.999999999999999
    vertex 821.7885689421104 1206.7268364077602 4.999999999999999
  endloop
endfacet
facet normal 0.38268343236506647 -0.9238795325112966 0.0
  outer loop
    vertex 821.7885689421104 1218.3179463232289 4.999999999999999
    vertex 820.3414832127255 1217.718543788201 1.001853349630685e-29
    vertex 821.7885689421104 1218.3179463232289 1.001853349630685e-29
  endloop
endfacet
facet normal 0.38268343236506647 -0.9238795325112966 0.0
  outer loop
    vertex 820.3414832127255 1217.718543788201 1.001853349630685e-29
    vertex 821.7885689421104 1218.3179463232289 4.999999999999999
    vertex 820.3414832127255 1217.718543788201 4.999999999999999
  endloop
endfacet
facet normal 0.9914448613738347 -0.13052619221986822 -0.0
  outer loop
    vertex 817.5459282549908 1214.0753056361098 1.001853349630685e-29
    vertex 817.3414832127255 1212.5223913654947 4.999999999999999
    vertex 817.3414832127255 1212.5223913654947 1.001853349630685e-29
  endloop
endfacet
facet normal 0.9914448613738347 -0.13052619221986822 -0.0
  outer loop
    vertex 817.3414832127255 1212.5223913654947 4.999999999999999
    vertex 817.5459282549908 1214.0753056361098 1.001853349630685e-29
    vertex 817.5459282549908 1214.0753056361098 4.999999999999999
  endloop
endfacet
facet normal 0.793353340291164 0.6087614290088134 -0.0
  outer loop
    vertex 818.1453307900189 1209.5223913654945 1.001853349630685e-29
    vertex 819.0988425256063 1208.2797506783754 4.999999999999999
    vertex 819.0988425256063 1208.2797506783754 1.001853349630685e-29
  endloop
endfacet
facet normal 0.793353340291164 0.6087614290088134 -0.0
  outer loop
    vertex 819.0988425256063 1208.2797506783754 4.999999999999999
    vertex 818.1453307900189 1209.5223913654945 1.001853349630685e-29
    vertex 818.1453307900189 1209.5223913654945 4.999999999999999
  endloop
endfacet
facet normal 0.923879532511215 -0.38268343236526303 -0.0
  outer loop
    vertex 818.1453307900189 1215.5223913654947 1.001853349630685e-29
    vertex 817.5459282549908 1214.0753056361098 4.999999999999999
    vertex 817.5459282549908 1214.0753056361098 1.001853349630685e-29
  endloop
endfacet
facet normal 0.923879532511215 -0.38268343236526303 -0.0
  outer loop
    vertex 817.5459282549908 1214.0753056361098 4.999999999999999
    vertex 818.1453307900189 1215.5223913654947 1.001853349630685e-29
    vertex 818.1453307900189 1215.5223913654947 4.999999999999999
  endloop
endfacet
facet normal 0.13052619222009473 0.9914448613738048 -0.0
  outer loop
    vertex 821.7885689421104 1206.7268364077602 4.999999999999999
    vertex 823.3414832127255 1206.5223913654945 1.001853349630685e-29
    vertex 821.7885689421104 1206.7268364077602 1.001853349630685e-29
  endloop
endfacet
facet normal 0.13052619222009473 0.9914448613738048 -0.0
  outer loop
    vertex 823.3414832127255 1206.5223913654945 1.001853349630685e-29
    vertex 821.7885689421104 1206.7268364077602 4.999999999999999
    vertex 823.3414832127255 1206.5223913654945 4.999999999999999
  endloop
endfacet
facet normal -0.13052619222032122 -0.991444861373775 0.0
  outer loop
    vertex 824.8943974833404 1218.3179463232289 4.999999999999999
    vertex 823.3414832127252 1218.522391365495 1.001853349630685e-29
    vertex 824.8943974833404 1218.3179463232289 1.001853349630685e-29
  endloop
endfacet
facet normal -0.13052619222032122 -0.991444861373775 0.0
  outer loop
    vertex 823.3414832127252 1218.522391365495 1.001853349630685e-29
    vertex 824.8943974833404 1218.3179463232289 4.999999999999999
    vertex 823.3414832127252 1218.522391365495 4.999999999999999
  endloop
endfacet
facet normal 0.9914448613738048 0.13052619222009473 -0.0
  outer loop
    vertex 817.3414832127255 1212.5223913654947 1.001853349630685e-29
    vertex 817.5459282549912 1210.9694770948795 4.999999999999999
    vertex 817.5459282549912 1210.9694770948795 1.001853349630685e-29
  endloop
endfacet
facet normal 0.9914448613738048 0.13052619222009473 -0.0
  outer loop
    vertex 817.5459282549912 1210.9694770948795 4.999999999999999
    vertex 817.3414832127255 1212.5223913654947 1.001853349630685e-29
    vertex 817.3414832127255 1212.5223913654947 4.999999999999999
  endloop
endfacet
facet normal 0.13052619222035106 -0.991444861373771 0.0
  outer loop
    vertex 823.3414832127252 1218.522391365495 4.999999999999999
    vertex 821.7885689421104 1218.3179463232289 1.001853349630685e-29
    vertex 823.3414832127252 1218.522391365495 1.001853349630685e-29
  endloop
endfacet
facet normal 0.13052619222035106 -0.991444861373771 0.0
  outer loop
    vertex 821.7885689421104 1218.3179463232289 1.001853349630685e-29
    vertex 823.3414832127252 1218.522391365495 4.999999999999999
    vertex 821.7885689421104 1218.3179463232289 4.999999999999999
  endloop
endfacet
facet normal 0.7933533402912754 -0.6087614290086683 -0.0
  outer loop
    vertex 819.098842525606 1216.7650320526138 1.001853349630685e-29
    vertex 818.1453307900189 1215.5223913654947 4.999999999999999
    vertex 818.1453307900189 1215.5223913654947 1.001853349630685e-29
  endloop
endfacet
facet normal 0.7933533402912754 -0.6087614290086683 -0.0
  outer loop
    vertex 818.1453307900189 1215.5223913654947 4.999999999999999
    vertex 819.098842525606 1216.7650320526138 1.001853349630685e-29
    vertex 819.098842525606 1216.7650320526138 4.999999999999999
  endloop
endfacet
facet normal -0.38268343236506647 -0.9238795325112966 0.0
  outer loop
    vertex 826.3414832127252 1217.718543788201 4.999999999999999
    vertex 824.8943974833404 1218.3179463232289 1.001853349630685e-29
    vertex 826.3414832127252 1217.718543788201 1.001853349630685e-29
  endloop
endfacet
facet normal -0.38268343236506647 -0.9238795325112966 0.0
  outer loop
    vertex 824.8943974833404 1218.3179463232289 1.001853349630685e-29
    vertex 826.3414832127252 1217.718543788201 4.999999999999999
    vertex 824.8943974833404 1218.3179463232289 4.999999999999999
  endloop
endfacet
facet normal 0.6087614290086296 -0.7933533402913052 0.0
  outer loop
    vertex 820.3414832127255 1217.718543788201 4.999999999999999
    vertex 819.098842525606 1216.7650320526138 1.001853349630685e-29
    vertex 820.3414832127255 1217.718543788201 1.001853349630685e-29
  endloop
endfacet
facet normal 0.6087614290086296 -0.7933533402913052 0.0
  outer loop
    vertex 819.098842525606 1216.7650320526138 1.001853349630685e-29
    vertex 820.3414832127255 1217.718543788201 4.999999999999999
    vertex 819.098842525606 1216.7650320526138 4.999999999999999
  endloop
endfacet
facet normal 0.6087614290087577 -0.7933533402912067 -6.865904837748925e-32
  outer loop
    vertex 809.591483212725 1236.3380899695667 100.0
    vertex 803.8960467300949 1231.9678278481242 4.999999999999999
    vertex 809.591483212725 1236.3380899695667 4.999999999999999
  endloop
endfacet
facet normal 0.6087614290087577 -0.7933533402912067 -6.865904837748925e-32
  outer loop
    vertex 803.8960467300949 1231.9678278481242 4.999999999999999
    vertex 809.591483212725 1236.3380899695667 100.0
    vertex 803.8960467300949 1231.9678278481242 100.0
  endloop
endfacet
facet normal 0.6087614290087321 0.7933533402912264 -0.0
  outer loop
    vertex 803.896046730095 1193.0769548828648 100.0
    vertex 809.591483212725 1188.7066927614226 4.999999999999999
    vertex 803.896046730095 1193.0769548828648 4.999999999999999
  endloop
endfacet
facet normal 0.6087614290087321 0.7933533402912264 -0.0
  outer loop
    vertex 809.591483212725 1188.7066927614226 4.999999999999999
    vertex 803.896046730095 1193.0769548828648 100.0
    vertex 809.591483212725 1188.7066927614226 100.0
  endloop
endfacet
facet normal 0.13052619222004452 -0.9914448613738114 2.9442746268461676e-32
  outer loop
    vertex 823.3414832127255 1240.022391365494 100.0
    vertex 816.2239594724056 1239.0853515884435 4.999999999999999
    vertex 823.3414832127255 1240.022391365494 4.999999999999999
  endloop
endfacet
facet normal 0.13052619222004452 -0.9914448613738114 2.9442746268461676e-32
  outer loop
    vertex 816.2239594724056 1239.0853515884435 4.999999999999999
    vertex 823.3414832127255 1240.022391365494 100.0
    vertex 816.2239594724056 1239.0853515884435 100.0
  endloop
endfacet
facet normal 0.7933533402912201 -0.6087614290087406 -0.0
  outer loop
    vertex 803.8960467300949 1231.9678278481242 4.999999999999999
    vertex 799.525784608653 1226.2723913654945 100.0
    vertex 799.525784608653 1226.2723913654945 4.999999999999999
  endloop
endfacet
facet normal 0.7933533402912201 -0.6087614290087406 -0.0
  outer loop
    vertex 799.525784608653 1226.2723913654945 100.0
    vertex 803.8960467300949 1231.9678278481242 4.999999999999999
    vertex 803.8960467300949 1231.9678278481242 100.0
  endloop
endfacet
facet normal 0.3826834323650291 -0.9238795325113119 -1.2207740980619059e-31
  outer loop
    vertex 816.2239594724056 1239.0853515884435 100.0
    vertex 809.591483212725 1236.3380899695667 4.999999999999999
    vertex 816.2239594724056 1239.0853515884435 4.999999999999999
  endloop
endfacet
facet normal 0.3826834323650291 -0.9238795325113119 -1.2207740980619059e-31
  outer loop
    vertex 809.591483212725 1236.3380899695667 4.999999999999999
    vertex 816.2239594724056 1239.0853515884435 100.0
    vertex 809.591483212725 1236.3380899695667 100.0
  endloop
endfacet
facet normal 0.9238795325112844 0.3826834323650954 -9.165492606108532e-19
  outer loop
    vertex 796.7785229897756 1205.4048676251753 4.999999999999999
    vertex 799.5257846086531 1198.7723913654945 100.0
    vertex 799.5257846086531 1198.7723913654945 4.999999999999999
  endloop
endfacet
facet normal 0.9238795325112844 0.3826834323650954 -9.165492606108532e-19
  outer loop
    vertex 799.5257846086531 1198.7723913654945 100.0
    vertex 796.7785229897756 1205.4048676251753 4.999999999999999
    vertex 796.7785229897756 1205.4048676251753 100.0
  endloop
endfacet
facet normal -0.1305261922200608 -0.9914448613738094 0.0
  outer loop
    vertex 830.4590069530446 1239.0853515884435 100.0
    vertex 823.3414832127255 1240.022391365494 4.999999999999999
    vertex 830.4590069530446 1239.0853515884435 4.999999999999999
  endloop
endfacet
facet normal -0.1305261922200608 -0.9914448613738094 0.0
  outer loop
    vertex 823.3414832127255 1240.022391365494 4.999999999999999
    vertex 830.4590069530446 1239.0853515884435 100.0
    vertex 823.3414832127255 1240.022391365494 100.0
  endloop
endfacet
facet normal 0.7933533402912201 0.6087614290087406 -0.0
  outer loop
    vertex 799.5257846086531 1198.7723913654945 4.999999999999999
    vertex 803.896046730095 1193.0769548828648 100.0
    vertex 803.896046730095 1193.0769548828648 4.999999999999999
  endloop
endfacet
facet normal 0.7933533402912201 0.6087614290087406 -0.0
  outer loop
    vertex 803.896046730095 1193.0769548828648 100.0
    vertex 799.5257846086531 1198.7723913654945 4.999999999999999
    vertex 799.5257846086531 1198.7723913654945 100.0
  endloop
endfacet
facet normal 0.9914448613738118 0.13052619222004194 -1.1181993052930165e-31
  outer loop
    vertex 795.8414832127252 1212.5223913654947 4.999999999999999
    vertex 796.7785229897756 1205.4048676251753 100.0
    vertex 796.7785229897756 1205.4048676251753 4.999999999999999
  endloop
endfacet
facet normal 0.9914448613738118 0.13052619222004194 -1.1181993052930165e-31
  outer loop
    vertex 796.7785229897756 1205.4048676251753 100.0
    vertex 795.8414832127252 1212.5223913654947 4.999999999999999
    vertex 795.8414832127252 1212.5223913654947 100.0
  endloop
endfacet
facet normal 0.9914448613738123 -0.1305261922200387 -5.179622700134309e-19
  outer loop
    vertex 796.7785229897756 1219.6399151058142 4.999999999999999
    vertex 795.8414832127252 1212.5223913654947 100.0
    vertex 795.8414832127252 1212.5223913654947 4.999999999999999
  endloop
endfacet
facet normal 0.9914448613738123 -0.1305261922200387 -5.179622700134309e-19
  outer loop
    vertex 795.8414832127252 1212.5223913654947 100.0
    vertex 796.7785229897756 1219.6399151058142 4.999999999999999
    vertex 796.7785229897756 1219.6399151058142 100.0
  endloop
endfacet
facet normal 0.9238795325112816 -0.3826834323651025 -0.0
  outer loop
    vertex 799.525784608653 1226.2723913654945 4.999999999999999
    vertex 796.7785229897756 1219.6399151058142 100.0
    vertex 796.7785229897756 1219.6399151058142 4.999999999999999
  endloop
endfacet
facet normal 0.9238795325112816 -0.3826834323651025 -0.0
  outer loop
    vertex 796.7785229897756 1219.6399151058142 100.0
    vertex 799.525784608653 1226.2723913654945 4.999999999999999
    vertex 799.525784608653 1226.2723913654945 100.0
  endloop
endfacet
facet normal -0.0 -0.0 1.0
  outer loop
    vertex 816.2239594724058 1185.9594311425453 4.999999999999999
    vertex 817.5459282549912 1210.9694770948795 4.999999999999999
    vertex 817.3414832127255 1212.5223913654947 4.999999999999999
  endloop
endfacet
facet normal -0.0 -0.0 1.0
  outer loop
    vertex 817.5459282549912 1210.9694770948795 4.999999999999999
    vertex 816.2239594724058 1185.9594311425453 4.999999999999999
    vertex 823.3414832127255 1185.0223913654947 4.999999999999999
  endloop
endfacet
facet normal -0.0 -0.0 1.0
  outer loop
    vertex 817.5459282549912 1210.9694770948795 4.999999999999999
    vertex 823.3414832127255 1185.0223913654947 4.999999999999999
    vertex 818.1453307900189 1209.5223913654945 4.999999999999999
  endloop
endfacet
facet normal -0.0 -0.0 1.0
  outer loop
    vertex 818.1453307900189 1209.5223913654945 4.999999999999999
    vertex 823.3414832127255 1185.0223913654947 4.999999999999999
    vertex 819.0988425256063 1208.2797506783754 4.999999999999999
  endloop
endfacet
facet normal -0.0 -0.0 1.0
  outer loop
    vertex 819.0988425256063 1208.2797506783754 4.999999999999999
    vertex 823.3414832127255 1185.0223913654947 4.999999999999999
    vertex 820.3414832127255 1207.326238942788 4.999999999999999
  endloop
endfacet
facet normal -0.0 -0.0 1.0
  outer loop
    vertex 820.3414832127255 1207.326238942788 4.999999999999999
    vertex 823.3414832127255 1185.0223913654947 4.999999999999999
    vertex 821.7885689421104 1206.7268364077602 4.999999999999999
  endloop
endfacet
facet normal -0.0 -0.0 1.0
  outer loop
    vertex 821.7885689421104 1206.7268364077602 4.999999999999999
    vertex 823.3414832127255 1185.0223913654947 4.999999999999999
    vertex 823.3414832127255 1206.5223913654945 4.999999999999999
  endloop
endfacet
facet normal -0.0 -0.0 1.0
  outer loop
    vertex 823.3414832127255 1206.5223913654945 4.999999999999999
    vertex 823.3414832127255 1185.0223913654947 4.999999999999999
    vertex 830.4590069530446 1185.9594311425453 4.999999999999999
  endloop
endfacet
facet normal -0.0 -0.0 1.0
  outer loop
    vertex 823.3414832127255 1206.5223913654945 4.999999999999999
    vertex 830.4590069530446 1185.9594311425453 4.999999999999999
    vertex 824.8943974833408 1206.7268364077602 4.999999999999999
  endloop
endfacet
facet normal -0.0 -0.0 1.0
  outer loop
    vertex 824.8943974833408 1206.7268364077602 4.999999999999999
    vertex 830.4590069530446 1185.9594311425453 4.999999999999999
    vertex 826.3414832127256 1207.326238942788 4.999999999999999
  endloop
endfacet
facet normal -0.0 -0.0 1.0
  outer loop
    vertex 826.3414832127256 1207.326238942788 4.999999999999999
    vertex 830.4590069530446 1185.9594311425453 4.999999999999999
    vertex 827.5841238998447 1208.2797506783754 4.999999999999999
  endloop
endfacet
facet normal -0.0 -0.0 1.0
  outer loop
    vertex 827.5841238998447 1208.2797506783754 4.999999999999999
    vertex 830.4590069530446 1185.9594311425453 4.999999999999999
    vertex 828.5376356354323 1209.5223913654945 4.999999999999999
  endloop
endfacet
facet normal -0.0 -0.0 1.0
  outer loop
    vertex 828.5376356354323 1209.5223913654945 4.999999999999999
    vertex 830.4590069530446 1185.9594311425453 4.999999999999999
    vertex 829.13703817046 1210.9694770948795 4.999999999999999
  endloop
endfacet
facet normal -0.0 -0.0 1.0
  outer loop
    vertex 829.13703817046 1210.9694770948795 4.999999999999999
    vertex 830.4590069530446 1185.9594311425453 4.999999999999999
    vertex 829.3414832127253 1212.5223913654947 4.999999999999999
  endloop
endfacet
facet normal -0.0 -0.0 1.0
  outer loop
    vertex 796.7785229897756 1205.4048676251753 4.999999999999999
    vertex 796.7785229897756 1219.6399151058142 4.999999999999999
    vertex 795.8414832127252 1212.5223913654947 4.999999999999999
  endloop
endfacet
facet normal -0.0 -0.0 1.0
  outer loop
    vertex 796.7785229897756 1219.6399151058142 4.999999999999999
    vertex 796.7785229897756 1205.4048676251753 4.999999999999999
    vertex 799.5257846086531 1198.7723913654945 4.999999999999999
  endloop
endfacet
facet normal -0.0 -0.0 1.0
  outer loop
    vertex 796.7785229897756 1219.6399151058142 4.999999999999999
    vertex 799.5257846086531 1198.7723913654945 4.999999999999999
    vertex 799.525784608653 1226.2723913654945 4.999999999999999
  endloop
endfacet
facet normal -0.0 -0.0 1.0
  outer loop
    vertex 799.525784608653 1226.2723913654945 4.999999999999999
    vertex 799.5257846086531 1198.7723913654945 4.999999999999999
    vertex 803.8960467300949 1231.9678278481242 4.999999999999999
  endloop
endfacet
facet normal -0.0 -0.0 1.0
  outer loop
    vertex 803.8960467300949 1231.9678278481242 4.999999999999999
    vertex 799.5257846086531 1198.7723913654945 4.999999999999999
    vertex 803.896046730095 1193.0769548828648 4.999999999999999
  endloop
endfacet
facet normal -0.0 -0.0 1.0
  outer loop
    vertex 803.8960467300949 1231.9678278481242 4.999999999999999
    vertex 803.896046730095 1193.0769548828648 4.999999999999999
    vertex 809.591483212725 1236.3380899695667 4.999999999999999
  endloop
endfacet
facet normal -0.0 -0.0 1.0
  outer loop
    vertex 809.591483212725 1236.3380899695667 4.999999999999999
    vertex 803.896046730095 1193.0769548828648 4.999999999999999
    vertex 809.591483212725 1188.7066927614226 4.999999999999999
  endloop
endfacet
facet normal -0.0 -0.0 1.0
  outer loop
    vertex 809.591483212725 1236.3380899695667 4.999999999999999
    vertex 809.591483212725 1188.7066927614226 4.999999999999999
    vertex 816.2239594724058 1185.9594311425453 4.999999999999999
  endloop
endfacet
facet normal -0.0 -0.0 1.0
  outer loop
    vertex 809.591483212725 1236.3380899695667 4.999999999999999
    vertex 816.2239594724058 1185.9594311425453 4.999999999999999
    vertex 816.2239594724056 1239.0853515884435 4.999999999999999
  endloop
endfacet
facet normal -0.0 -0.0 1.0
  outer loop
    vertex 816.2239594724056 1239.0853515884435 4.999999999999999
    vertex 816.2239594724058 1185.9594311425453 4.999999999999999
    vertex 817.3414832127255 1212.5223913654947 4.999999999999999
  endloop
endfacet
facet normal -0.0 -0.0 1.0
  outer loop
    vertex 816.2239594724056 1239.0853515884435 4.999999999999999
    vertex 817.3414832127255 1212.5223913654947 4.999999999999999
    vertex 817.5459282549908 1214.0753056361098 4.999999999999999
  endloop
endfacet
facet normal -0.0 -0.0 1.0
  outer loop
    vertex 816.2239594724056 1239.0853515884435 4.999999999999999
    vertex 817.5459282549908 1214.0753056361098 4.999999999999999
    vertex 823.3414832127255 1240.022391365494 4.999999999999999
  endloop
endfacet
facet normal -0.0 -0.0 1.0
  outer loop
    vertex 823.3414832127255 1240.022391365494 4.999999999999999
    vertex 817.5459282549908 1214.0753056361098 4.999999999999999
    vertex 818.1453307900189 1215.5223913654947 4.999999999999999
  endloop
endfacet
facet normal -0.0 -0.0 1.0
  outer loop
    vertex 823.3414832127255 1240.022391365494 4.999999999999999
    vertex 818.1453307900189 1215.5223913654947 4.999999999999999
    vertex 819.098842525606 1216.7650320526138 4.999999999999999
  endloop
endfacet
facet normal -0.0 -0.0 1.0
  outer loop
    vertex 823.3414832127255 1240.022391365494 4.999999999999999
    vertex 819.098842525606 1216.7650320526138 4.999999999999999
    vertex 820.3414832127255 1217.718543788201 4.999999999999999
  endloop
endfacet
facet normal -0.0 -0.0 1.0
  outer loop
    vertex 823.3414832127255 1240.022391365494 4.999999999999999
    vertex 820.3414832127255 1217.718543788201 4.999999999999999
    vertex 821.7885689421104 1218.3179463232289 4.999999999999999
  endloop
endfacet
facet normal -0.0 -0.0 1.0
  outer loop
    vertex 823.3414832127255 1240.022391365494 4.999999999999999
    vertex 821.7885689421104 1218.3179463232289 4.999999999999999
    vertex 823.3414832127252 1218.522391365495 4.999999999999999
  endloop
endfacet
facet normal -0.0 -0.0 1.0
  outer loop
    vertex 823.3414832127255 1240.022391365494 4.999999999999999
    vertex 823.3414832127252 1218.522391365495 4.999999999999999
    vertex 824.8943974833404 1218.3179463232289 4.999999999999999
  endloop
endfacet
facet normal -0.0 -0.0 1.0
  outer loop
    vertex 823.3414832127255 1240.022391365494 4.999999999999999
    vertex 824.8943974833404 1218.3179463232289 4.999999999999999
    vertex 830.4590069530446 1239.0853515884435 4.999999999999999
  endloop
endfacet
facet normal -0.0 -0.0 1.0
  outer loop
    vertex 830.4590069530446 1239.0853515884435 4.999999999999999
    vertex 824.8943974833404 1218.3179463232289 4.999999999999999
    vertex 826.3414832127252 1217.718543788201 4.999999999999999
  endloop
endfacet
facet normal -0.0 -0.0 1.0
  outer loop
    vertex 830.4590069530446 1239.0853515884435 4.999999999999999
    vertex 826.3414832127252 1217.718543788201 4.999999999999999
    vertex 827.5841238998447 1216.7650320526138 4.999999999999999
  endloop
endfacet
facet normal -0.0 -0.0 1.0
  outer loop
    vertex 830.4590069530446 1239.0853515884435 4.999999999999999
    vertex 827.5841238998447 1216.7650320526138 4.999999999999999
    vertex 828.5376356354319 1215.5223913654947 4.999999999999999
  endloop
endfacet
facet normal -0.0 -0.0 1.0
  outer loop
    vertex 830.4590069530446 1239.0853515884435 4.999999999999999
    vertex 828.5376356354319 1215.5223913654947 4.999999999999999
    vertex 829.1370381704596 1214.0753056361098 4.999999999999999
  endloop
endfacet
facet normal -0.0 -0.0 1.0
  outer loop
    vertex 830.4590069530446 1239.0853515884435 4.999999999999999
    vertex 829.1370381704596 1214.0753056361098 4.999999999999999
    vertex 829.3414832127253 1212.5223913654947 4.999999999999999
  endloop
endfacet
facet normal -0.0 -0.0 1.0
  outer loop
    vertex 830.4590069530446 1239.0853515884435 4.999999999999999
    vertex 829.3414832127253 1212.5223913654947 4.999999999999999
    vertex 830.4590069530446 1185.9594311425453 4.999999999999999
  endloop
endfacet
facet normal -0.0 -0.0 1.0
  outer loop
    vertex 830.4590069530446 1239.0853515884435 4.999999999999999
    vertex 830.4590069530446 1185.9594311425453 4.999999999999999
    vertex 837.0914832127253 1188.7066927614226 4.999999999999999
  endloop
endfacet
facet normal -0.0 -0.0 1.0
  outer loop
    vertex 830.4590069530446 1239.0853515884435 4.999999999999999
    vertex 837.0914832127253 1188.7066927614226 4.999999999999999
    vertex 837.0914832127249 1236.3380899695667 4.999999999999999
  endloop
endfacet
facet normal -0.0 -0.0 1.0
  outer loop
    vertex 837.0914832127249 1236.3380899695667 4.999999999999999
    vertex 837.0914832127253 1188.7066927614226 4.999999999999999
    vertex 842.786919695355 1231.9678278481242 4.999999999999999
  endloop
endfacet
facet normal -0.0 -0.0 1.0
  outer loop
    vertex 842.786919695355 1231.9678278481242 4.999999999999999
    vertex 837.0914832127253 1188.7066927614226 4.999999999999999
    vertex 842.7869196953553 1193.0769548828648 4.999999999999999
  endloop
endfacet
facet normal -0.0 -0.0 1.0
  outer loop
    vertex 842.786919695355 1231.9678278481242 4.999999999999999
    vertex 842.7869196953553 1193.0769548828648 4.999999999999999
    vertex 847.1571818167971 1226.2723913654945 4.999999999999999
  endloop
endfacet
facet normal -0.0 -0.0 1.0
  outer loop
    vertex 847.1571818167971 1226.2723913654945 4.999999999999999
    vertex 842.7869196953553 1193.0769548828648 4.999999999999999
    vertex 847.1571818167971 1198.772391365495 4.999999999999999
  endloop
endfacet
facet normal -0.0 -0.0 1.0
  outer loop
    vertex 847.1571818167971 1226.2723913654945 4.999999999999999
    vertex 847.1571818167971 1198.772391365495 4.999999999999999
    vertex 849.9044434356745 1205.4048676251753 4.999999999999999
  endloop
endfacet
facet normal -0.0 -0.0 1.0
  outer loop
    vertex 847.1571818167971 1226.2723913654945 4.999999999999999
    vertex 849.9044434356745 1205.4048676251753 4.999999999999999
    vertex 849.9044434356745 1219.6399151058142 4.999999999999999
  endloop
endfacet
facet normal -0.0 -0.0 1.0
  outer loop
    vertex 849.9044434356745 1219.6399151058142 4.999999999999999
    vertex 849.9044434356745 1205.4048676251753 4.999999999999999
    vertex 850.841483212725 1212.5223913654947 4.999999999999999
  endloop
endfacet
endsolid Water Tower Parts
